<?xml version="1.0" encoding="utf-8"?>
<!-- Generator: Adobe Illustrator 21.0.2, SVG Export Plug-In . SVG Version: 6.00 Build 0)  -->
<svg version="1.1" id="Logos" xmlns="http://www.w3.org/2000/svg" xmlns:xlink="http://www.w3.org/1999/xlink" x="0px" y="0px"
	 viewBox="0 0 264 101" style="enable-background:new 0 0 264 101;" xml:space="preserve">
<style type="text/css">
	.st0{opacity:0.45;}
	.st1{fill:#FFFFFF;}
	.st2{opacity:0.45;fill:#FFFFFF;}
	.st3{fill:#FBFBFB;}
	.st4{fill:#FCFCFC;}
</style>
<g class="st0">
	<path class="st3" d="M66.6,41.2c1.2,0.6,2.2,1.5,2.8,2.6c0.7,1.1,1,2.4,1,3.8c0,1.4-0.3,2.7-1,3.8c-0.7,1.1-1.6,2-2.8,2.6
		c-1.2,0.6-2.6,0.9-4.2,0.9h-4.8V40.3h4.8C63.9,40.3,65.3,40.6,66.6,41.2z M60.6,43v9.3h1.8c1,0,1.8-0.2,2.6-0.6
		c0.7-0.4,1.3-0.9,1.7-1.6c0.4-0.7,0.6-1.5,0.6-2.5c0-1.4-0.4-2.5-1.3-3.4c-0.9-0.8-2.1-1.2-3.6-1.2H60.6z"/>
	<g>
		<g>
			<path class="st3" d="M80,55h-3V40.3h3V55z"/>
			<path class="st3" d="M101.7,40v15h-3v-7.8L95,51.8h-1l-3.7-4.6V55h-3V40h1l6.2,7.9l6.2-7.9H101.7z"/>
			<path class="st3" d="M119,43h-6.9v3h5.1v2.6h-5.1v3.7h7.1V55h-10.2V40.3h9.9V43z"/>
			<path class="st3" d="M138.4,40.3v15h-1l-8.5-9.1V55h-3V40h1l8.5,9v-8.8H138.4z"/>
			<path class="st3" d="M153.3,40.8c0.8,0.5,1.5,1.2,1.9,2l-2,1.6c-0.8-1.1-1.7-1.7-2.8-1.7c-0.5,0-1,0.1-1.3,0.4
				c-0.3,0.2-0.5,0.6-0.5,1.1c0,0.4,0.1,0.7,0.4,0.9c0.3,0.2,0.7,0.5,1.3,0.8l1.7,0.7c1.2,0.5,2.1,1.2,2.7,1.8
				c0.6,0.7,0.9,1.5,0.9,2.5c0,0.9-0.2,1.7-0.7,2.3c-0.4,0.7-1.1,1.2-1.8,1.5c-0.8,0.4-1.7,0.5-2.6,0.5c-1.2,0-2.4-0.3-3.4-0.9
				c-1-0.6-1.8-1.4-2.3-2.4l2.1-1.6c0.5,0.7,1,1.2,1.6,1.6c0.6,0.4,1.2,0.6,2,0.6c0.7,0,1.2-0.1,1.5-0.4c0.4-0.3,0.6-0.7,0.6-1.2
				c0-0.4-0.1-0.8-0.4-1c-0.3-0.2-0.8-0.5-1.5-0.8l-1.6-0.7c-1.1-0.5-2-1.1-2.6-1.8c-0.6-0.7-0.9-1.5-0.9-2.4c0-0.8,0.2-1.6,0.6-2.2
				c0.4-0.6,1-1.1,1.7-1.5c0.7-0.3,1.6-0.5,2.5-0.5C151.5,40,152.5,40.3,153.3,40.8z"/>
			<path class="st3" d="M165.2,55h-3V40.3h3V55z"/>
			<path class="st3" d="M183.5,41c1.2,0.7,2.1,1.6,2.8,2.7c0.7,1.2,1.1,2.5,1.1,3.9c0,1.4-0.4,2.7-1.1,3.9c-0.7,1.2-1.7,2.1-2.8,2.7
				c-1.2,0.7-2.5,1-3.9,1c-1.4,0-2.7-0.3-3.9-1c-1.2-0.7-2.1-1.6-2.8-2.7c-0.7-1.2-1-2.5-1-3.9c0-1.4,0.3-2.7,1-3.9
				c0.7-1.2,1.6-2.1,2.8-2.7c1.2-0.7,2.5-1,3.9-1C180.9,40,182.3,40.3,183.5,41z M177.1,43.4c-0.7,0.4-1.3,1-1.7,1.7
				c-0.4,0.7-0.6,1.6-0.6,2.5c0,0.9,0.2,1.8,0.6,2.5c0.4,0.7,1,1.3,1.7,1.7c0.7,0.4,1.5,0.6,2.4,0.6c0.9,0,1.7-0.2,2.4-0.6
				c0.7-0.4,1.3-1,1.7-1.7c0.4-0.7,0.6-1.6,0.6-2.5c0-0.9-0.2-1.7-0.6-2.5c-0.4-0.7-1-1.3-1.7-1.7c-0.7-0.4-1.5-0.6-2.4-0.6
				C178.6,42.8,177.8,43,177.1,43.4z"/>
		</g>
		<path class="st3" d="M206.4,40.3v15h-1l-8.5-9.1V55h-3V40h1l8.5,9v-8.8H206.4z"/>
	</g>
	<path class="st3" d="M212.4,47.6l6.4-4.2v8.3L212.4,47.6z"/>
	<path class="st3" d="M45.2,51.8v-8.3l6.4,4.2L45.2,51.8z"/>
</g>
</svg>
