<?xml version="1.0" encoding="utf-8"?>
<!-- Generator: Adobe Illustrator 21.0.2, SVG Export Plug-In . SVG Version: 6.00 Build 0)  -->
<svg version="1.1" id="Logos" xmlns="http://www.w3.org/2000/svg" xmlns:xlink="http://www.w3.org/1999/xlink" x="0px" y="0px"
	 viewBox="0 0 264 101" style="enable-background:new 0 0 264 101;" xml:space="preserve">
<style type="text/css">
	.st0{opacity:0.45;}
	.st1{fill:#FFFFFF;}
	.st2{opacity:0.45;fill:#FFFFFF;}
	.st3{fill:#FBFBFB;}
	.st4{fill:#FCFCFC;}
</style>
<g class="st0">
	<path class="st1" d="M127.7,34.4h-16.6c-1.2,0-2.2,1-2.2,2.2v11.5c0,1.2,1,2.2,2.2,2.2h16.6c1.2,0,2.2-1,2.2-2.2V36.6
		C130,35.4,129,34.4,127.7,34.4z M127.3,46.9c0,1-0.7,1.7-1.6,1.7h-12.7c-0.9,0-1.6-0.8-1.6-1.7v-9c0-1,0.7-1.7,1.6-1.7h12.7
		c0.9,0,1.6,0.8,1.6,1.7V46.9z"/>
	<path class="st1" d="M105.8,36.6c0-1.2-1-2.2-2.2-2.2H88.3c-1.2,0-2.2,1-2.2,2.2l0,12.6c0,0.6,0.5,1.1,1.1,1.1h0.5
		c0.6,0,1.1-0.5,1.1-1.1l0-11.3c0-1,0.7-1.7,1.6-1.7h11.4c0.8,0,1.5,0.7,1.5,1.7v0.9c0,0.6,0.5,1.1,1.1,1.1h0.5
		c0.6,0,1.1-0.5,1.1-1.1V37v0L105.8,36.6z"/>
	<path class="st1" d="M199.9,38.6V40c0,0.9-0.7,1.6-1.5,1.6h-9.2l0.1,1.8h11.1c1.2,0,2.2-1,2.2-2.2l0-0.3l0,0v-2.1v0V37v0l0-0.3
		c0-1.2-1-2.2-2.2-2.2h-15.2c-1.2,0-2.2,1-2.2,2.2l0,11.4c0,1.2,1,2.2,2.2,2.2h15.2c1.2,0,2.2-1,2.2-2.2l0-0.3l0,0v-1
		c0-0.6-0.5-1.1-1.1-1.1H201c-0.6,0-1.1,0.5-1.1,1.1v0.9c0,0.9-0.7,0.9-1.5,0.9H187c-0.9,0-1.6-0.8-1.6-1.7v-1.8l0-7
		c0-1,0.7-1.7,1.6-1.7h11.4c0.8,0,1.5,0.7,1.5,1.7V38.6L199.9,38.6z"/>
	<path class="st1" d="M178.2,34.3l-0.5-0.1c-0.5-0.1-0.8,0.1-1,0.6l-7,10.6c-0.1,0.2-0.4,0.4-0.7,0.4h-0.4c-0.3,0-0.5-0.2-0.7-0.5
		l-7-10.5c-0.2-0.5-0.5-0.7-1-0.7l-0.6,0.1c-0.5,0.2-0.7,0.5-0.6,1l8.9,14.3c0.1,0.4,0.5,0.9,0.9,0.9l0.2,0l0.2,0
		c0.4-0.1,0.8-0.5,0.9-0.8l8.9-14.4C178.9,34.8,178.6,34.4,178.2,34.3"/>
	<path class="st1" d="M80.4,34.4H63.8c-1.2,0-2.2,1-2.2,2.2v11.5c0,1.2,1,2.2,2.2,2.2h12.7v-1.7H65.8c-0.9,0-1.6-0.8-1.6-1.7v-9
		c0-1,0.7-1.7,1.6-1.7h12.7c0.9,0,1.6,0.8,1.6,1.7l0,20.6c0,1-0.7,1.7-1.6,1.7h-13c-0.8,0-1.5-0.7-1.5-1.6v-0.9
		c0-0.6-0.5-1.1-1.1-1.1h-0.5c-0.6,0-1.1,0.5-1.1,1.1v1.7l0,0l0,0.3c0,1.2,1,2.2,2.2,2.2h16.9c1.2,0,2.2-1,2.2-2.2l0-23.2
		C82.6,35.4,81.6,34.4,80.4,34.4z"/>
	<path class="st1" d="M133.3,36.6v11.5c0,1.2,1,2.2,2.2,2.2h16.6c1.2,0,2.2-1,2.2-2.2V36.6c0-1.2-1-2.2-2.2-2.2h-16.6
		C134.3,34.4,133.3,35.4,133.3,36.6z M135.9,37.9c0-1,0.7-1.7,1.6-1.7h12.7c0.9,0,1.6,0.8,1.6,1.7v9c0,1-0.7,1.7-1.6,1.7h-12.7
		c-0.9,0-1.6-0.8-1.6-1.7V37.9z"/>
	<g>
		<path class="st1" d="M98,62.4c-0.9,0-1.4-0.7-1.4-1.6v-4.1h-1.3v-1h1.3V54h1.1v1.6h2v1h-2v4.2c0,0.4,0.2,0.5,0.6,0.5h1.4v1H98z"/>
		<path class="st1" d="M108,62.4v-5.7h-2v-1h3.1v5.7h2v1H108z M108,54.1v-1.2h1.3v1.2H108z"/>
		<path class="st1" d="M120.1,62.4c-0.5,0-1.1-0.3-1.1-1.3v-7.1h-2v-1h3.1v8c0,0.3,0.1,0.4,0.5,0.4h1.8v1H120.1z"/>
		<path class="st1" d="M130.7,62.4c-1.6,0-2.3-0.6-2.3-2.2v-2.4c0-1.5,0.6-2.2,2.2-2.2h0.6c1.3,0,1.9,0.7,1.9,2.1v1.8h-3.6v1
			c0,0.5,0.3,0.9,1,0.9h2.1v1H130.7z M129.5,58.5h2.5v-1c0-0.5-0.3-0.8-0.8-0.8h-0.8c-0.7,0-0.9,0.3-0.9,0.9V58.5z"/>
		<path class="st1" d="M142.4,58.7v2.1h-1.1v-2.1h-2v-1h2v-2.1h1.1v2.1h2v1H142.4z"/>
		<path class="st1" d="M152.9,62.4h-2v-1h2.1c0.5,0,0.7-0.2,0.7-0.6V60c0-0.4-0.2-0.6-0.6-0.6h-0.5c-1.2,0-1.9-0.5-1.9-1.7v-0.4
			c0-1.3,0.7-1.7,2-1.7h1.8v1h-1.9c-0.4,0-0.7,0.2-0.7,0.6v0.5c0,0.4,0.3,0.6,0.6,0.6h0.5c1.2,0,1.8,0.6,1.8,1.7v0.6
			C154.9,61.8,154.2,62.4,152.9,62.4z"/>
		<path class="st1" d="M164.5,62.4c-0.9,0-1.4-0.7-1.4-1.6v-4.1h-1.3v-1h1.3V54h1.1v1.6h2v1h-2v4.2c0,0.4,0.2,0.5,0.6,0.5h1.4v1
			H164.5z"/>
		<path class="st1" d="M175.2,62.4h-0.4c-1.6,0-2.3-0.6-2.3-2.2v-2.4c0-1.5,0.7-2.2,2.3-2.2h0.4c1.6,0,2.3,0.6,2.3,2.2v2.4
			C177.5,61.7,176.8,62.4,175.2,62.4z M176.4,57.5c0-0.5-0.3-0.9-1-0.9h-0.7c-0.7,0-1,0.3-1,0.9v3c0,0.5,0.3,0.9,1,0.9h0.7
			c0.7,0,1-0.3,1-0.9V57.5z"/>
		<path class="st1" d="M183.6,62.4v-6.7h1.1v0.3c0.3-0.2,0.7-0.3,1.1-0.3h0.6c1.4,0,2.2,0.6,2.2,2.2v4.6h-1.1v-4.9
			c0-0.5-0.3-0.9-0.9-0.9h-0.9c-0.7,0-0.9,0.5-0.9,0.7v5H183.6z"/>
		<path class="st1" d="M197.1,62.4c-1.6,0-2.3-0.6-2.3-2.2v-2.4c0-1.5,0.6-2.2,2.2-2.2h0.6c1.3,0,1.9,0.7,1.9,2.1v1.8h-3.6v1
			c0,0.5,0.3,0.9,1,0.9h2.1v1H197.1z M195.9,58.5h2.5v-1c0-0.5-0.3-0.8-0.8-0.8h-0.8c-0.7,0-0.9,0.3-0.9,0.9V58.5z"/>
	</g>
	<g>
		<g>
			<g>
				<path class="st1" d="M113.7,46.8c-0.2,0-0.3-0.1-0.3-0.3v-3.2c0-0.2,0.1-0.3,0.3-0.3h4.7c0.2,0,0.3,0.1,0.3,0.3v3.2
					c0,0.2-0.1,0.3-0.3,0.3H113.7z"/>
			</g>
			<g>
				<path class="st1" d="M120.6,46.8c-0.2,0-0.3-0.1-0.3-0.3v-3.2c0-0.2,0.1-0.3,0.3-0.3h4.7c0.2,0,0.3,0.1,0.3,0.3v3.2
					c0,0.2-0.1,0.3-0.3,0.3H120.6z"/>
			</g>
			<g>
				<path class="st1" d="M113.7,41.8c-0.2,0-0.3-0.1-0.3-0.3v-3.2c0-0.2,0.1-0.3,0.3-0.3h4.7c0.2,0,0.3,0.1,0.3,0.3v3.2
					c0,0.2-0.1,0.3-0.3,0.3H113.7z"/>
			</g>
			<g>
				<path class="st1" d="M120.6,41.8c-0.2,0-0.3-0.1-0.3-0.3v-3.2c0-0.2,0.1-0.3,0.3-0.3h4.7c0.2,0,0.3,0.1,0.3,0.3v3.2
					c0,0.2-0.1,0.3-0.3,0.3H120.6z"/>
			</g>
		</g>
	</g>
	<g>
		<g>
			<g>
				<path class="st1" d="M138,46.8c-0.2,0-0.3-0.1-0.3-0.3v-3.2c0-0.2,0.1-0.3,0.3-0.3h4.7c0.2,0,0.3,0.1,0.3,0.3v3.2
					c0,0.2-0.1,0.3-0.3,0.3H138z"/>
			</g>
			<g>
				<path class="st1" d="M144.9,46.8c-0.2,0-0.3-0.1-0.3-0.3v-3.2c0-0.2,0.1-0.3,0.3-0.3h4.7c0.2,0,0.3,0.1,0.3,0.3v3.2
					c0,0.2-0.1,0.3-0.3,0.3H144.9z"/>
			</g>
			<g>
				<path class="st1" d="M138,41.8c-0.2,0-0.3-0.1-0.3-0.3v-3.2c0-0.2,0.1-0.3,0.3-0.3h4.7c0.2,0,0.3,0.1,0.3,0.3v3.2
					c0,0.2-0.1,0.3-0.3,0.3H138z"/>
			</g>
			<g>
				<path class="st1" d="M144.9,41.8c-0.2,0-0.3-0.1-0.3-0.3v-3.2c0-0.2,0.1-0.3,0.3-0.3h4.7c0.2,0,0.3,0.1,0.3,0.3v3.2
					c0,0.2-0.1,0.3-0.3,0.3H144.9z"/>
			</g>
		</g>
	</g>
	<rect x="60.6" y="65.1" class="st1" width="142.9" height="1.8"/>
</g>
</svg>
