<?xml version="1.0" encoding="utf-8"?>
<!-- Generator: Adobe Illustrator 21.0.2, SVG Export Plug-In . SVG Version: 6.00 Build 0)  -->
<svg version="1.1" id="Logos" xmlns="http://www.w3.org/2000/svg" xmlns:xlink="http://www.w3.org/1999/xlink" x="0px" y="0px"
	 viewBox="0 0 264 101" style="enable-background:new 0 0 264 101;" xml:space="preserve">
<style type="text/css">
	.st0{opacity:0.45;}
	.st1{fill:#FFFFFF;}
	.st2{opacity:0.45;fill:#FFFFFF;}
	.st3{fill:#FBFBFB;}
	.st4{fill:#FCFCFC;}
</style>
<path class="st2" d="M114,42.6c-2-0.2-3.8-0.7-3.8-2.1c0-1.3,1.1-2.2,3.5-2.2c1.8,0,3.4,0.9,4,1.9l2.5-1.3c-1.3-2.6-4-3.4-6.6-3.4
	c-3.1,0-6.5,1.4-6.5,4.9c0,3.8,3.2,4.7,6.6,5.1c2.2,0.2,3.9,0.9,3.9,2.5c0,1.8-1.9,2.5-3.9,2.5c-2.1,0-4-0.8-4.8-2.7l-2.7,1.4
	c1.3,3.1,3.9,4.2,7.4,4.2c3.8,0,7.1-1.6,7.1-5.4C120.8,44,117.5,43.1,114,42.6z"/>
<path class="st2" d="M131.2,36c-2.7,0-5.3,0-8,0V53h3.2v-5h4.8C139.5,48,139.5,36,131.2,36z M131.2,45.1h-4.8v-6h4.8
	C135.3,39.1,135.3,45.1,131.2,45.1z"/>
<path class="st2" d="M156.2,44.6c0-4.4-2.9-8.9-8.7-8.9c-5.8,0-8.7,4.5-8.7,8.9c0,4.4,2.8,8.7,8.7,8.7
	C153.5,53.4,156.2,49,156.2,44.6z M142,44.7c-0.1-2.9,1.6-6.1,5.6-6.1c4,0,5.6,3.2,5.5,6c0,2.8-1.5,5.8-5.5,5.8
	C143.6,50.4,142.1,47.5,142,44.7z"/>
<path class="st2" d="M173.6,53v-0.2l-5.1-5.8c3.2-0.7,4.3-3,4.3-5.3c0-2.9-2.1-5.6-6.1-5.6c-2.7,0-5.4,0-8,0V53h3.2v-5.7h3.1
	l4.9,5.7H173.6z M161.8,44.4V39h4.9c2,0,2.9,1.4,2.9,2.7c0,1.4-0.9,2.7-2.9,2.7H161.8z"/>
<path class="st2" d="M183.2,53v-14h5.4v-2.9c-4.9,0-9,0-13.9,0v2.9h5.4v14H183.2z"/>
<path class="st2" d="M197.2,42.6c-2-0.2-3.8-0.7-3.8-2.1c0-1.3,1.1-2.2,3.5-2.2c1.8,0,3.4,0.9,4,1.9l2.5-1.3c-1.3-2.6-4-3.4-6.6-3.4
	c-3.1,0-6.5,1.4-6.5,4.9c0,3.8,3.2,4.7,6.6,5.1c2.2,0.2,3.9,0.9,3.9,2.5c0,1.8-1.9,2.5-3.9,2.5c-2.1,0-4-0.8-4.8-2.7l-2.7,1.4
	c1.3,3.1,3.9,4.2,7.4,4.2c3.8,0,7.1-1.6,7.1-5.4C204,44,200.7,43.1,197.2,42.6z"/>
<polygon class="st2" points="113.7,65.3 107.4,57.6 107.1,57.6 107.1,66.9 107.9,66.9 107.9,59.3 114.1,66.9 114.4,66.9 114.4,57.6 
	113.7,57.6 "/>
<polygon class="st2" points="122,62.6 127.4,62.6 127.4,61.9 122,61.9 122,58.3 127.7,58.3 127.7,57.6 121.3,57.6 121.3,66.9 
	127.9,66.9 127.9,66.3 122,66.3 "/>
<polygon class="st2" points="134,58.3 137.4,58.3 137.4,66.9 138.1,66.9 138.1,58.3 141.5,58.3 141.5,57.7 134,57.7 "/>
<polygon class="st2" points="157.1,66.1 154.2,57.6 153.8,57.6 150.9,66.1 148.1,57.6 147.3,57.6 150.6,67 151.3,67 152.8,62.6 
	154,58.9 155.2,62.6 156.7,67 157.4,67 160.7,57.6 159.9,57.6 "/>
<path class="st2" d="M171,57.5c-3.1,0-4.7,2.3-4.7,4.8c0,2.5,1.6,4.8,4.7,4.8c3.1,0,4.7-2.4,4.7-4.8C175.8,59.8,174.2,57.5,171,57.5
	z M171,66.4c-2.6,0-4-2-4-4.1c0-2.2,1.3-4.1,4-4.1c2.7,0,4,2,4,4.1C175,64.4,173.7,66.4,171,66.4z"/>
<path class="st2" d="M189.4,60.5c0-1.4-1-2.9-3.1-2.9c-1.4,0-2.7,0-4.1,0v9.3h0.7v-3.5h2.5l3.2,3.5h0.9l-3.3-3.6
	C188.4,63.4,189.4,62.1,189.4,60.5z M183,62.7v-4.4h3.4c1.5,0,2.3,1.1,2.3,2.2c0,1.3-0.7,2.2-2.4,2.2H183z"/>
<polygon class="st2" points="201.8,57.7 201.8,57.6 200.9,57.6 196.4,61.9 196.4,57.6 195.7,57.6 195.7,66.9 196.4,66.9 196.4,62.4 
	201.3,66.9 202.2,66.9 202.2,66.9 197.1,62.1 "/>
<g class="st0">
	<rect x="63.6" y="44.6" class="st1" width="5.5" height="22.2"/>
	<path class="st1" d="M63.2,38.4c0,4.3,6.5,4.3,6.5,0C69.6,34.2,63.2,34.2,63.2,38.4z"/>
	<path class="st1" d="M86.4,35.4c-3.9,0-8.5,0-12.3,0v25.7l5.9-4V41h6.5c6.8,0,9.7,4.9,9.8,9.8c0.1,5.1-2.7,10.3-9.8,10.3h-6.5v0H74
		v5.7c3.9,0,8.5,0,12.3,0c11,0,15.8-8,15.7-16C101.9,43,97.1,35.4,86.4,35.4z"/>
	<circle class="st1" cx="83.7" cy="50.9" r="1.5"/>
	<circle class="st1" cx="88.1" cy="50.9" r="1.5"/>
	<circle class="st1" cx="92.5" cy="50.9" r="1.5"/>
</g>
</svg>
