<?xml version="1.0" encoding="utf-8"?>
<!-- Generator: Adobe Illustrator 21.0.2, SVG Export Plug-In . SVG Version: 6.00 Build 0)  -->
<svg version="1.1" id="Logos" xmlns="http://www.w3.org/2000/svg" xmlns:xlink="http://www.w3.org/1999/xlink" x="0px" y="0px"
	 viewBox="0 0 264 101" style="enable-background:new 0 0 264 101;" xml:space="preserve">
<style type="text/css">
	.st0{opacity:0.45;}
	.st1{fill:#FFFFFF;}
	.st2{opacity:0.45;fill:#FFFFFF;}
	.st3{fill:#FBFBFB;}
	.st4{fill:#FCFCFC;}
</style>
<g class="st0">
	<path class="st1" d="M167.7,80.7c0-0.1-0.1-0.2-0.2-0.2h-0.2v0.3h0.2C167.6,80.9,167.7,80.9,167.7,80.7z"/>
	<path class="st1" d="M162.7,75.4c-1.3,0-1.9,0.9-2.1,1.4h3.4c0.2,0,0.2-0.2,0.2-0.2C164.3,76.3,164,75.4,162.7,75.4z"/>
	<path class="st1" d="M112.6,75.3c-1.4,0-2.2,1.2-2.4,2.1c-0.1,0.8,0.2,2,1.6,2c1.5,0,2.3-1.3,2.4-2.1
		C114.4,76.4,114,75.3,112.6,75.3z"/>
	<path class="st1" d="M105.1,74.2c0.2-1-0.3-1.7-1.7-1.7h-1l-0.6,2.9c0,0.2,0.2,0.2,0.2,0.2h0.7C104.6,75.7,105,74.7,105.1,74.2z"/>
	<path class="st1" d="M167.5,80.2c-0.4,0-0.7,0.3-0.7,0.8c0,0.4,0.3,0.8,0.7,0.8c0.4,0,0.7-0.3,0.7-0.8
		C168.2,80.5,167.9,80.2,167.5,80.2z M167.7,81.5l-0.3-0.5h-0.2v0.5h-0.2v-1.1h0.4c0.3,0,0.4,0.1,0.4,0.3c0,0.2-0.1,0.3-0.3,0.3
		l0.3,0.5H167.7z"/>
	<path class="st1" d="M90,7.3V92h84.7V7.3H90z M104.3,78c2.8,3.5,2.7,3.3,2.7,3.3c0.2,0.2-0.1,0.2-0.1,0.2h-2.7
		c-0.2,0-0.4-0.2-0.4-0.2l-2.3-3.1c-0.1-0.2-0.2-0.2-0.2-0.2h0l-0.6,3.2c0,0.2-0.3,0.2-0.3,0.2h-2.2c-0.2,0-0.2-0.2-0.2-0.2
		l1.9-10.5c0-0.2,0.3-0.2,0.3-0.2h3.2c1.6-0.1,2.4-0.1,3.3,0.9c0.8,0.9,1,1.8,0.8,2.9c-0.2,1.2-1.4,3.1-3.2,3.4
		C104.2,77.8,104.3,78,104.3,78z M117.4,73.6l-1.4,7.6c0,0.2-0.3,0.2-0.3,0.2h-2.1c-0.2,0-0.2-0.2-0.2-0.2l0.2-0.9
		c-0.6,0.8-1.6,1.4-2.5,1.4c-2.6,0-3.7-2-3.3-4.3c0.5-2.7,2.7-4.3,4.9-4.3c1.3,0,1.9,0.8,2.1,1.3c0.2-1,0.2-1,0.2-1h2.2
		C117.4,73.4,117.4,73.6,117.4,73.6z M126.4,73.6l-5.8,10.2c-0.1,0.2-0.4,0.2-0.4,0.2h-2c-0.2,0-0.1-0.2-0.1-0.2l1.5-2.7
		c0.1-0.2,0.1-0.4,0.1-0.4l-1.4-7c0-0.2,0.2-0.2,0.2-0.2h2.1c0.2,0,0.3,0.2,0.3,0.2l0.7,3.7c0,0.2,0.2,0,0.2,0l2.1-3.8
		c0.1-0.2,0.4-0.2,0.4-0.2h2C126.5,73.4,126.4,73.6,126.4,73.6z M135.7,81.4h-2.1c-0.2,0-0.2-0.2-0.2-0.2l-0.2-6c0-0.2-0.1,0-0.1,0
		l-2.5,6.1c-0.1,0.2-0.3,0.2-0.3,0.2h-2c-0.2,0-0.3-0.2-0.3-0.2l-0.7-10.3c0-0.2,0.2-0.2,0.2-0.2h2.1c0.2,0,0.3,0.2,0.3,0.2l0.4,5.7
		c0,0.2,0.1,0,0.1,0l2.5-5.8c0.1-0.2,0.3-0.2,0.3-0.2h1.6c0.2,0,0.3,0.2,0.3,0.2l0.3,5.7c0,0.2,0.1,0,0.1,0l2.7-5.8
		c0.1-0.2,0.3-0.2,0.3-0.2h2.2c0.2,0,0.1,0.2,0.1,0.2l-4.8,10.3C136,81.4,135.7,81.4,135.7,81.4z M148,76.9l-0.8,4.3
		c0,0.2-0.3,0.2-0.3,0.2H145c-0.2,0-0.2-0.2-0.2-0.2l0.8-4.2c0.1-0.4,0.3-1.9-1-1.9c-1.4,0-1.6,1.4-1.7,1.8l-0.8,4.2
		c0,0.2-0.3,0.2-0.3,0.2H140c-0.2,0-0.2-0.2-0.2-0.2l1.9-10.3c0-0.2,0.3-0.2,0.3-0.2h1.9c0.2,0,0.2,0.2,0.2,0.2l-0.6,3
		c0,0.2,0,0.2,0,0.2h0c0.5-0.7,1.4-1,2.3-1c0.8,0,1.6,0.3,2,0.9C148.4,74.8,148.3,75.5,148,76.9z M152.3,73.6l-1.4,7.6
		c0,0.2-0.3,0.2-0.3,0.2h-1.9c-0.2,0-0.2-0.2-0.2-0.2l1.4-7.6c0-0.2,0.3-0.2,0.3-0.2h1.9C152.4,73.4,152.3,73.6,152.3,73.6z
		 M152.8,70.9l-0.3,1.4c0,0.2-0.3,0.2-0.3,0.2h-1.9c-0.2,0-0.2-0.2-0.2-0.2l0.3-1.4c0-0.2,0.3-0.2,0.3-0.2h1.9
		C152.9,70.7,152.8,70.9,152.8,70.9z M157.7,75.2h-0.9l-1.1,6c0,0.2-0.3,0.2-0.3,0.2h-1.9c-0.2,0-0.2-0.2-0.2-0.2l1.1-5.8
		c0-0.2-0.2-0.2-0.2-0.2h-1l0.3-1.6c0-0.2,0.3-0.2,0.3-0.2h1l0.5-2.5c0-0.2,0.3-0.2,0.3-0.2h1.9c0.2,0,0.2,0.2,0.2,0.2l-0.4,2.2
		c0,0.2,0.2,0.2,0.2,0.2h0.9L158,75C158,75.2,157.7,75.2,157.7,75.2z M166.1,78.3h-5.8c0,1,0.7,1.4,1.6,1.4c0.7,0,1.1-0.1,1.5-0.6
		h2.4c0.2,0,0.1,0.2,0.1,0.2c-0.4,0.7-1.2,1.3-2,1.7c-0.8,0.5-1.6,0.6-2.4,0.6c-2.3,0-3.9-1.9-3.5-4.3c0.4-2.3,2.6-4.3,5-4.3
		c2.5,0,3.9,1.9,3.5,4.4c-0.1,0.3-0.1,0.6-0.2,0.7C166.4,78.3,166.1,78.3,166.1,78.3z M167.5,81.8c-0.5,0-0.9-0.4-0.9-0.9
		c0-0.5,0.4-0.9,0.9-0.9c0.5,0,0.9,0.4,0.9,0.9C168.4,81.4,168,81.8,167.5,81.8z"/>
</g>
</svg>
