<?xml version="1.0" encoding="utf-8"?>
<!-- Generator: Adobe Illustrator 22.0.1, SVG Export Plug-In . SVG Version: 6.00 Build 0)  -->
<svg version="1.1" id="Layer_1" xmlns="http://www.w3.org/2000/svg" xmlns:xlink="http://www.w3.org/1999/xlink" x="0px" y="0px"
	 viewBox="0 0 500 500" style="enable-background:new 0 0 500 500;" xml:space="preserve">
<style type="text/css">
	.st0{fill:#414DA3;}
	.st1{fill:#FFFFFF;}
	.st2{fill:#29377C;}
	.st3{fill:none;stroke:#231F20;stroke-width:10;stroke-miterlimit:10;}
</style>
<g>
	<path class="st0" d="M250.2,1C112.5,1,0.7,112.8,0.7,250.5S112.7,500,250.2,500s249.5-111.8,249.5-249.5S387.9,1,250.2,1z"/>
	<path class="st1" d="M169.4,182.3c-55.2,0-100,34.7-100,77.4c0,20.3,10,38.7,26.5,52.5l-2.2,8.3l-6,22.3l22.3-6l20.9-5.7
		c11.8,3.9,24.9,5.9,38.5,5.9c55.2,0,100-34.7,100-77.4S224.6,182.3,169.4,182.3z"/>
	<circle class="st2" cx="135" cy="260" r="14.1"/>
	<circle class="st2" cx="170.2" cy="260" r="14.1"/>
	<circle class="st2" cx="205.5" cy="260" r="14.1"/>
	<path class="st0" d="M442.4,210.9c0-24.8-12.2-47.8-34.3-65c-21.2-16.3-49.1-25.4-78.6-25.4c-29.5,0-57.4,9-78.6,25.4
		c-22.1,17.1-34.3,40.2-34.3,65s12.2,47.8,34.3,65c21.1,16.3,49.1,25.4,78.6,25.4c13.4,0,26.3-1.8,38.8-5.4l61.1,16.4l-11.9-44.6
		C433.6,251.7,442.4,231.8,442.4,210.9z"/>
	<path class="st1" d="M329.6,133.5c55.2,0,100,34.7,100,77.4c0,20.3-10,38.7-26.5,52.5l2.2,8.3l6,22.3l-22.3-6l-20.9-5.7
		c-11.8,3.9-24.9,5.9-38.5,5.9c-55.2,0-100-34.7-100-77.4C229.5,168.2,274.3,133.5,329.6,133.5z"/>
	<circle class="st2" cx="364" cy="211.2" r="14.1"/>
	<circle class="st2" cx="293.6" cy="211.2" r="14.1"/>
	<circle class="st2" cx="328.8" cy="211.2" r="14.1"/>
</g>
<g>
	<g>
		<g>
			<path class="st3" d="M303.5,387.8"/>
		</g>
	</g>
</g>
</svg>
