<?xml version="1.0" encoding="utf-8"?>
<!-- Generator: Adobe Illustrator 21.0.0, SVG Export Plug-In . SVG Version: 6.00 Build 0)  -->
<svg version="1.1" id="Layer_1" xmlns="http://www.w3.org/2000/svg" xmlns:xlink="http://www.w3.org/1999/xlink" x="0px" y="0px"
	 viewBox="0 0 500 500" style="enable-background:new 0 0 500 500;" xml:space="preserve">
<style type="text/css">
	.st0{fill:#FFBA08;}
	.st1{fill:#FFE39C;}
	.st2{fill:none;stroke:#231F20;stroke-width:10;stroke-miterlimit:10;}
	.st3{fill:#FFFEFD;}
</style>
<g>
	<g>
		<g>
			<circle class="st0" cx="249.7" cy="251" r="250"/>
		</g>
	</g>
</g>
<g>
	<g>
		<g>
			<path class="st1" d="M300.2,394.1h-156c-12.9,0-23.3-10.4-23.3-23.3V126.1c0-12.9,10.4-23.3,23.3-23.3h156
				c12.9,0,23.3,10.4,23.3,23.3v244.6C323.6,383.7,313.1,394.1,300.2,394.1z"/>
		</g>
	</g>
</g>
<g>
	<g>
		<g>
			<path class="st0" d="M301.2,346H142.1c-1.4,0-2.5-1.1-2.5-2.5V130.3c0-1.4,1.1-2.5,2.5-2.5h159.1c1.4,0,2.5,1.1,2.5,2.5v213.2
				C303.7,344.8,302.6,346,301.2,346z M144.6,340.9h154V132.8h-154V340.9z"/>
		</g>
	</g>
</g>
<g>
	<g>
		<g>
			<path class="st2" d="M303.5,387.8"/>
		</g>
	</g>
</g>
<g>
	<g>
		<g>
			<path class="st1" d="M367.3,394.1h-87.4c-10.8,0-19.6-8.8-19.6-19.6V185.7c0-10.8,8.8-19.6,19.6-19.6h87.4
				c10.8,0,19.6,8.8,19.6,19.6v188.8C386.9,385.3,378.1,394.1,367.3,394.1z"/>
		</g>
	</g>
	<g>
		<g>
			<path class="st0" d="M367.3,396.6h-87.4c-12.2,0-22.1-9.9-22.1-22.1V185.7c0-12.2,9.9-22.1,22.1-22.1h87.4
				c12.2,0,22.1,9.9,22.1,22.1v188.8C389.4,386.7,379.5,396.6,367.3,396.6z M279.8,168.7c-9.4,0-17.1,7.7-17.1,17.1v188.8
				c0,9.4,7.6,17.1,17.1,17.1h87.4c9.4,0,17.1-7.6,17.1-17.1V185.7c0-9.4-7.7-17.1-17.1-17.1H279.8z"/>
		</g>
	</g>
</g>
<g>
	<g>
		<g>
			<circle class="st0" cx="323.6" cy="367.7" r="10.6"/>
		</g>
	</g>
</g>
<g>
	<g>
		<g>
			<circle class="st0" cx="220.1" cy="367.7" r="10.6"/>
		</g>
	</g>
</g>
<g>
	<g>
		<g>
			<rect x="272.9" y="191.5" class="st3" width="101.3" height="155.4"/>
		</g>
	</g>
	<g>
		<g>
			<path class="st0" d="M374.2,349.4H272.9c-1.4,0-2.5-1.1-2.5-2.5V191.5c0-1.4,1.1-2.5,2.5-2.5h101.3c1.4,0,2.5,1.1,2.5,2.5v155.4
				C376.8,348.3,375.6,349.4,374.2,349.4z M275.4,344.3h96.2V194h-96.2V344.3z"/>
		</g>
	</g>
</g>
<g>
	<g>
		<g>
			<path class="st0" d="M336.2,182.7h-25.3c-1.1,0-2-0.9-2-2s0.9-2,2-2h25.3c1.1,0,2,0.9,2,2S337.3,182.7,336.2,182.7z"/>
		</g>
	</g>
</g>
<g>
	<g>
		<g>
			<path class="st0" d="M234.3,122.6H209c-1.1,0-2-0.9-2-2c0-1.1,0.9-2,2-2h25.3c1.1,0,2,0.9,2,2
				C236.3,121.7,235.4,122.6,234.3,122.6z"/>
		</g>
	</g>
</g>
</svg>
