<?xml version="1.0" encoding="utf-8"?>
<!-- Generator: Adobe Illustrator 21.0.0, SVG Export Plug-In . SVG Version: 6.00 Build 0)  -->
<svg version="1.1" id="Layer_1" xmlns="http://www.w3.org/2000/svg" xmlns:xlink="http://www.w3.org/1999/xlink" x="0px" y="0px"
	 viewBox="0 0 500 500" style="enable-background:new 0 0 500 500;" xml:space="preserve">
<style type="text/css">
	.st0{fill:#FF934F;}
	.st1{fill:#FFD4B9;}
	.st2{fill:#FFFFFF;}
	.st3{fill:#FFBE95;}
</style>
<g>
	<g>
		<circle class="st0" cx="250" cy="251" r="250"/>
	</g>
	<g>
		<g>
			<g>
				<path class="st1" d="M250.1,245c-32.5,0-63.1-12.7-86.1-35.7c-23-23-35.7-53.6-35.7-86.1h5.1c0,31.2,12.1,60.5,34.2,82.5
					c22,22,51.3,34.2,82.5,34.2s60.5-12.1,82.5-34.2c22-22,34.2-51.3,34.2-82.5h5.1c0,32.5-12.7,63.1-35.7,86.1
					C313.2,232.3,282.6,245,250.1,245z"/>
			</g>
		</g>
		<g>
			<g>
				<rect x="357.2" y="107.7" class="st1" width="23.8" height="23.8"/>
			</g>
		</g>
		<g>
			<g>
				<rect x="119" y="107.7" class="st1" width="23.8" height="23.8"/>
			</g>
		</g>
	</g>
	<g>
		<path class="st2" d="M247.1,126.6l-95.5,191c-0.6,1.2-0.4,2.5,0.4,3.5l47.3,56.5c0.6,0.7,1.5,1.2,2.5,1.2h96.3
			c1,0,1.9-0.4,2.5-1.2l47.3-56.5c0.8-1,1-2.4,0.4-3.5l-95.5-191C251.7,124.2,248.3,124.2,247.1,126.6z"/>
	</g>
	<g>
		<rect x="247.5" y="114.8" class="st0" width="5.1" height="159.5"/>
	</g>
	<g>
		<rect x="203.3" y="392.2" class="st3" width="93.4" height="40"/>
	</g>
	<g>
		<circle class="st0" cx="250" cy="274.3" r="12.1"/>
	</g>
</g>
</svg>
