<?xml version="1.0" encoding="utf-8"?>
<!-- Generator: Adobe Illustrator 21.0.2, SVG Export Plug-In . SVG Version: 6.00 Build 0)  -->
<svg version="1.1" id="Logos" xmlns="http://www.w3.org/2000/svg" xmlns:xlink="http://www.w3.org/1999/xlink" x="0px" y="0px"
	 viewBox="0 0 264 101" style="enable-background:new 0 0 264 101;" xml:space="preserve">
<style type="text/css">
	.st0{opacity:0.45;}
	.st1{fill:#FFFFFF;}
	.st2{opacity:0.45;fill:#FFFFFF;}
	.st3{fill:#FBFBFB;}
	.st4{fill:#FCFCFC;}
</style>
<g class="st0">
	<path class="st1" d="M173.2,66.6H173v0.6h0.3c0.3,0,0.4-0.1,0.4-0.3C173.7,66.7,173.5,66.6,173.2,66.6z"/>
	<path class="st1" d="M173.2,65.8c-0.4,0-0.8,0.2-1.1,0.5c-0.3,0.3-0.5,0.7-0.5,1.1s0.2,0.8,0.5,1.1c0.3,0.3,0.7,0.5,1.1,0.5
		c0.4,0,0.8-0.2,1.1-0.5c0.3-0.3,0.5-0.7,0.5-1.1c0-0.5-0.2-0.8-0.5-1.2C174.1,66,173.7,65.8,173.2,65.8z M173.6,68.4l-0.4-0.9H173
		v0.9h-0.5v-2.1h0.8c0.6,0,0.9,0.2,0.9,0.6c0,0.3-0.2,0.5-0.5,0.6l0.5,0.9H173.6z"/>
	<polygon class="st1" points="108.4,43.2 107.9,43.2 102.3,54.3 111,54.3 	"/>
	<path class="st1" d="M132,20c-30.4,0-55,13.7-55,30.5S101.6,81,132,81s55-13.7,55-30.5S162.4,20,132,20z M132,22.1
		c25,0,45.3,12.7,45.3,28.4c0,1.5-0.2,3.1-0.6,4.5h-3.2c0.4-1.5,0.6-3,0.6-4.5c0-12.3-12.7-22.7-30-26.1v3h-1.2v-3.2
		c-2.1-0.4-4.2-0.6-6.4-0.8v6.3h-1.2v-6.4c-1.1-0.1-2.1-0.1-3.2-0.1c-1.1,0-2.1,0-3.2,0.1v6.4h-1.2v-6.3c-2.2,0.1-4.3,0.4-6.4,0.8
		v3.2H120v-3c-17.4,3.3-30,13.7-30,26.1c0,1.2,0.1,2.3,0.3,3.4l-2.2,3.5c-0.9-2.2-1.4-4.5-1.4-6.9C86.7,34.8,107,22.1,132,22.1z
		 M173.2,50.5c0,1.5-0.2,3.1-0.6,4.5h-7.4l-2-15.7l4.2-2C171.1,41.2,173.2,45.7,173.2,50.5z M122.7,29v-3.5c1.1-0.2,2.2-0.3,3.4-0.4
		v6.2h4.2v-6.5c0.6,0,1.1,0,1.7,0c0.6,0,1.1,0,1.7,0v6.5h4.2v-6.2c1.1,0.1,2.3,0.2,3.4,0.4V29h4.2v-2.7c7.2,1.6,13.5,4.3,18.3,8
		h-41.6l-0.5,17l-5.5-17h-16c4.8-3.6,11.1-6.4,18.3-7.9V29H122.7z M99.6,38.9l-8.7,14c-0.1-0.8-0.2-1.6-0.2-2.3
		c0-4.8,2.1-9.2,5.7-13L99.6,38.9z M86.4,63.8l15.2-24.6h3.4l-7.3-3.4h16.8l8.5,25.2h0.3l0.8-25.2h24.2l0.5,6.8h-15v4.6h10l0.3,6.1
		h-10.3v10.3h-20.8l-1-4.5H99.7l-2.3,4.5H86.4z M132,76.2c-13.1,0-24.8-3.8-32.4-9.8l1.4-3.5h9.7l0.9,4.5h25V57.2h10L146,46.6h3.2
		l1.6,20.8h12.3C155.5,72.8,144.4,76.2,132,76.2z M174.6,68.8c-0.4,0.4-0.9,0.6-1.4,0.6c-0.5,0-1-0.2-1.4-0.6
		c-0.4-0.4-0.5-0.8-0.5-1.3c0-0.3,0.1-0.7,0.3-1c0.3-0.6,0.9-0.9,1.6-0.9c0.5,0,1,0.2,1.4,0.6c0.4,0.4,0.5,0.8,0.5,1.3
		C175.2,68,175,68.4,174.6,68.8z M152.7,63.8l-2.2-27.9h15.3l-7.9,3.4h3.2l2.2,17.5h13l1.7,7H152.7z"/>
</g>
</svg>
