<?xml version="1.0" encoding="utf-8"?>
<!-- Generator: Adobe Illustrator 21.0.2, SVG Export Plug-In . SVG Version: 6.00 Build 0)  -->
<svg version="1.1" id="Logos" xmlns="http://www.w3.org/2000/svg" xmlns:xlink="http://www.w3.org/1999/xlink" x="0px" y="0px"
	 viewBox="0 0 264 101" style="enable-background:new 0 0 264 101;" xml:space="preserve">
<style type="text/css">
	.st0{opacity:0.45;}
	.st1{fill:#FFFFFF;}
	.st2{opacity:0.45;fill:#FFFFFF;}
	.st3{fill:#FBFBFB;}
	.st4{fill:#FCFCFC;}
</style>
<g id="XMLID_42_" class="st0">
	<g id="XMLID_61_">
		<path id="XMLID_76_" class="st1" d="M92.4,64.3c0-0.1-0.1-0.2-0.3-0.2c-0.1,0-0.2,0.1-0.3,0.2l-3.5,8.6c0,0.1,0,0.2,0,0.3
			c0.1,0.1,0.1,0.1,0.2,0.1h0.2c0.1,0,0.2-0.1,0.3-0.2l0.8-2h4.3l0.8,2c0,0.1,0.1,0.2,0.3,0.2h0.2c0,0,0,0,0,0
			c0.2,0,0.3-0.1,0.3-0.3c0-0.1,0-0.1,0-0.2L92.4,64.3z M90.3,70.3l1.8-4.5l1.8,4.5H90.3z"/>
		<path id="XMLID_38_" class="st1" d="M105.9,64.1h-0.2c-0.2,0-0.3,0.1-0.3,0.3v6c0,0.3-0.1,0.6-0.2,0.8c-0.1,0.3-0.3,0.5-0.4,0.7
			c-0.2,0.2-0.4,0.3-0.7,0.4c-0.5,0.2-1.1,0.2-1.6,0c-0.3-0.1-0.5-0.3-0.7-0.4c-0.2-0.2-0.3-0.4-0.4-0.7c-0.1-0.3-0.2-0.5-0.2-0.8
			v-6c0-0.2-0.1-0.3-0.3-0.3h-0.2c-0.2,0-0.3,0.1-0.3,0.3v6c0,0.4,0.1,0.8,0.2,1.1c0.1,0.3,0.4,0.6,0.6,0.9c0.3,0.3,0.6,0.5,0.9,0.6
			c0.3,0.1,0.7,0.2,1.1,0.2c0.4,0,0.8-0.1,1.1-0.2c0.3-0.1,0.7-0.4,0.9-0.6c0.3-0.3,0.5-0.6,0.6-0.9c0.1-0.3,0.2-0.7,0.2-1.1v-6
			C106.1,64.2,106,64.1,105.9,64.1z"/>
		<path id="XMLID_37_" class="st1" d="M115.1,64.6l-0.5-0.3c-0.3-0.2-0.6-0.3-0.9-0.3c-0.3,0-0.6,0-0.9,0.1
			c-0.3,0.1-0.6,0.2-0.9,0.4c-0.3,0.2-0.5,0.4-0.7,0.7c-0.2,0.3-0.3,0.6-0.3,0.9c0,0.3,0,0.6,0.1,1c0.1,0.3,0.2,0.6,0.4,0.9
			c0.2,0.3,0.4,0.5,0.7,0.7l1.6,0.9c0.2,0.1,0.4,0.3,0.5,0.5c0.1,0.2,0.2,0.4,0.3,0.6c0,0.2,0.1,0.4,0,0.6c0,0.2-0.1,0.4-0.2,0.6
			c-0.1,0.2-0.3,0.4-0.4,0.5c-0.2,0.1-0.4,0.2-0.6,0.3c-0.2,0.1-0.4,0.1-0.6,0c-0.2,0-0.4-0.1-0.6-0.2l-0.6-0.4c-0.1,0-0.2,0-0.3,0
			c-0.1,0.1-0.1,0.1-0.1,0.2v0.3c0,0.1,0.1,0.2,0.1,0.2l0.5,0.3c0.3,0.2,0.6,0.3,0.9,0.3c0.1,0,0.2,0,0.3,0c0.2,0,0.4,0,0.6-0.1
			c0.3-0.1,0.6-0.2,0.9-0.4c0.3-0.2,0.5-0.5,0.7-0.8c0.2-0.3,0.3-0.6,0.3-0.9c0-0.3,0-0.6-0.1-0.9c-0.1-0.3-0.2-0.6-0.4-0.9
			c-0.2-0.3-0.4-0.5-0.7-0.7l-1.6-0.9c-0.2-0.1-0.4-0.3-0.5-0.5c-0.1-0.2-0.2-0.4-0.3-0.6c0-0.2-0.1-0.4,0-0.6
			c0-0.2,0.1-0.4,0.2-0.6c0.1-0.2,0.3-0.4,0.4-0.5c0.2-0.1,0.4-0.2,0.6-0.3c0.2-0.1,0.4-0.1,0.6,0c0.2,0,0.4,0.1,0.6,0.2l0.6,0.4
			c0.1,0.1,0.2,0.1,0.3,0c0.1-0.1,0.1-0.1,0.1-0.2v-0.3C115.3,64.7,115.2,64.6,115.1,64.6z"/>
		<path id="XMLID_36_" class="st1" d="M125.4,64.1h-5.2c-0.2,0-0.3,0.1-0.3,0.3v0.2c0,0.2,0.1,0.3,0.3,0.3h2.2V73
			c0,0.2,0.1,0.3,0.3,0.3h0.2c0.2,0,0.3-0.1,0.3-0.3v-8.1h2.2c0.2,0,0.3-0.1,0.3-0.3v-0.2C125.7,64.2,125.6,64.1,125.4,64.1z"/>
		<path id="XMLID_70_" class="st1" d="M135.3,68.8c0.2-0.2,0.4-0.5,0.5-0.8c0.1-0.3,0.2-0.6,0.2-1c0-0.4-0.1-0.8-0.2-1.1
			c-0.1-0.3-0.4-0.7-0.6-0.9c-0.3-0.3-0.6-0.5-0.9-0.6c-0.3-0.1-0.7-0.2-1.1-0.2h-2.3c-0.2,0-0.3,0.1-0.3,0.3V73
			c0,0.2,0.1,0.3,0.3,0.3h0.2c0.2,0,0.3-0.1,0.3-0.3v-3.2h2c0,0,0,0,0,0l1.8,3.3c0,0.1,0.1,0.2,0.3,0.2h0.3c0.1,0,0.2-0.1,0.2-0.1
			c0.1-0.1,0.1-0.2,0-0.3l-1.7-3.2c0.2-0.1,0.4-0.2,0.5-0.3C134.9,69.2,135.1,69,135.3,68.8z M131.3,64.9h1.8c0.3,0,0.6,0.1,0.8,0.2
			c0.3,0.1,0.5,0.3,0.7,0.4c0.2,0.2,0.3,0.4,0.4,0.7c0.1,0.3,0.2,0.5,0.2,0.8c0,0.3-0.1,0.6-0.2,0.8c-0.1,0.3-0.3,0.5-0.4,0.7
			c-0.2,0.2-0.4,0.3-0.7,0.4c-0.3,0.1-0.5,0.2-0.8,0.2h-1.8V64.9z"/>
		<path id="XMLID_67_" class="st1" d="M144.4,64.3c0-0.1-0.1-0.2-0.3-0.2c-0.1,0-0.2,0.1-0.3,0.2l-3.5,8.6c0,0.1,0,0.2,0,0.3
			c0.1,0.1,0.1,0.1,0.2,0.1h0.2c0.1,0,0.2-0.1,0.3-0.2l0.8-2h4.3l0.8,2c0,0.1,0.1,0.2,0.3,0.2h0.2c0,0,0,0,0,0
			c0.2,0,0.3-0.1,0.3-0.3c0-0.1,0-0.1,0-0.2L144.4,64.3z M142.3,70.3l1.8-4.5l1.8,4.5H142.3z"/>
		<path id="XMLID_31_" class="st1" d="M157.5,72.5h-4.1v-8.1c0-0.2-0.1-0.3-0.3-0.3h-0.2c-0.2,0-0.3,0.1-0.3,0.3V73
			c0,0.2,0.1,0.3,0.3,0.3h4.6c0.2,0,0.3-0.1,0.3-0.3v-0.2C157.8,72.6,157.7,72.5,157.5,72.5z"/>
		<path id="XMLID_30_" class="st1" d="M163,64.1h-0.2c-0.2,0-0.3,0.1-0.3,0.3V73c0,0.2,0.1,0.3,0.3,0.3h0.2c0.2,0,0.3-0.1,0.3-0.3
			v-8.6C163.3,64.2,163.2,64.1,163,64.1z"/>
		<path id="XMLID_62_" class="st1" d="M175.6,72.9l-3.5-8.6c0-0.1-0.1-0.2-0.3-0.2c-0.1,0-0.2,0.1-0.3,0.2l-3.5,8.6
			c0,0.1,0,0.2,0,0.3c0.1,0.1,0.1,0.1,0.2,0.1h0.2c0.1,0,0.2-0.1,0.3-0.2l0.8-2h4.3l0.8,2c0,0.1,0.1,0.2,0.3,0.2h0.2
			c0.1,0,0.2,0,0.2-0.1C175.6,73.1,175.6,73,175.6,72.9z M170,70.3l1.8-4.5l1.8,4.5H170z"/>
	</g>
	<path id="XMLID_26_" class="st1" d="M171.7,32.5L171.7,32.5L171.7,32.5C171.8,32.5,171.8,32.5,171.7,32.5c0.1,0.1,0.2,0.1,0.3,0.2
		c0,0,0,0,0.1,0c0.1,0,0.2,0.1,0.3,0.1c0,0,0,0,0,0c0.1,0,0.2,0.1,0.3,0.2c0,0,0,0,0.1,0c0.1,0,0.1,0.1,0.2,0.2c0,0,0,0,0.1,0.1
		c0.1,0.1,0.1,0.1,0.2,0.2c0,0,0,0,0,0c0.1,0.1,0.1,0.2,0.2,0.3c0,0,0,0,0,0.1c0,0.1,0.1,0.1,0.1,0.2c0,0,0,0,0,0.1
		c0,0.1,0.1,0.2,0.1,0.3c0.1,0.2,0.1,0.5,0.1,0.8v0.5v2.5v0.1v0.1v0.2v0.5v8.1v5.4L159.1,33l-0.4-0.5h-0.9h-2h-0.5h-2.1v0.1
		c0.6,0,1.1,0.3,1.4,0.8c0.6,0.9,0.7,2.3,0.7,2.3v7.6v8.4v3v0.5c0,0.4-0.1,0.8-0.3,1.2c-0.4,0.7-1,1.2-1.8,1.4v0.1h4.7v-0.1
		c-0.8-0.2-1.4-0.7-1.8-1.4c-0.2-0.4-0.3-0.8-0.3-1.2v-0.5v-3v-8.4v-7L171.3,57c0,0,0.1,0.2,0.2,0.4c0,0.1,0.1,0.3,0.1,0.4h0.4h2.4
		v-0.3h0v-0.4v-2.7v-1.2v-0.5v-5.6v-8.1v-0.5v-0.2v-0.1v-0.1v-2.5v-0.5c0-0.3,0-0.5,0.1-0.8c0-0.1,0.1-0.2,0.1-0.3c0,0,0,0,0-0.1
		c0-0.1,0.1-0.2,0.1-0.2c0,0,0,0,0-0.1c0.1-0.2,0.2-0.3,0.4-0.5c0,0,0,0,0.1-0.1c0.1-0.1,0.1-0.1,0.2-0.2c0,0,0,0,0,0
		c0.1-0.1,0.2-0.1,0.3-0.2c0,0,0,0,0,0c0.1,0,0.2-0.1,0.3-0.1c0,0,0,0,0.1,0c0.1,0,0.2-0.1,0.3-0.1c0,0,0,0,0,0v-0.1v0H171.7z"/>
	<path id="XMLID_25_" class="st1" d="M82.8,32.5h-4.6h-0.8v0.1c0.5,0.2,0.8,0.6,0.8,1.2c0,0,0,0,0,0.1l0,0v0.1v6v0.6v6.6v1.4v2
		c0,3.1-1.8,5.8-4.5,7.1c0,0,0,0,0,0c0,0,0,0,0,0c-0.2,0.1-0.6,0.2-1.5,0.2c-0.2,0-0.4-0.1-0.6-0.1c-1.5-0.3-3.7-1.2-4.3-3.2
		c-0.1-0.2-0.1-0.4-0.1-0.6c0-0.2,0-0.3,0.1-0.6c0-0.1,0.1-0.2,0.2-0.2c0.1,0,0.2,0,0.2,0c0.2,0.2,0.5,0.4,0.8,0.5
		c0.3,0.1,0.6,0.2,0.9,0.2c0.7,0,1.4-0.2,1.9-0.7c0.6-0.5,0.8-1.1,0.8-1.8c0-0.9-0.2-1.5-0.8-2c-0.5-0.5-1.1-0.8-1.8-0.8
		c-0.5,0-0.9,0.1-1.3,0.4c-1.2,0.7-1.8,1.8-1.8,3.5c0,0-0.1,1.8,0.7,3c0.1,0.2,0.3,0.5,0.4,0.7c0.8,1,1.9,1.6,3,1.9c0,0,0,0,0.1,0
		c0.3,0.1,0.7,0.2,1.1,0.3c0,0,0,0,0.1,0c0,0,0.1,0,0.1,0c1.2,0.2,2.4,0,2.9-0.1c0.1,0,0.2,0,0.2,0l0,0c1.2-0.2,2.3-0.7,3.3-1.3
		c2.7-1.7,4.6-4.8,4.6-8.3c0,0,0-0.1,0-0.1v-1.2V33.9v-0.6l0,0c0.1-0.3,0.3-0.6,0.6-0.7v-0.1H82.8z"/>
	<path id="XMLID_55_" class="st1" d="M152.6,57.4c-0.8,0-1.1-0.4-1.2-0.7c0-0.1,0-0.1-0.1-0.2c-0.1-0.4-0.2-0.9-0.2-1.6
		c0-2.6-0.2-4.5-0.7-5.8c-0.5-1.4-1.2-2.4-2.2-3.2c0,0,0,0,0,0c-0.7-0.7-2.2-1.4-2.2-1.4v0c-0.3-0.2-0.7-0.3-1.1-0.4
		c0-0.1,0.1-0.1,0.2-0.1c0,0,0.1,0,0.1,0c2.6-0.3,4.6-1,5.8-2.2c1-0.9,1.5-2.1,1.5-3.6c0-1.2-0.7-2.4-1.9-3.6
		c-1.2-1.1-2.7-1.8-4.5-2.1c-0.7-0.1-1.4-0.2-2.2-0.2h0h-3.8h-1.2h0h-2.7h-2h0h-0.8l0.1,0.1c0.3,0.1,0.6,0.4,0.7,0.7v20.1h0v3.2l0,0
		c0,0,0,0,0,0.1c0,0.1,0,0.1,0,0.2c-0.1,0.4-0.3,0.8-0.7,1v0.1h0.7h0h4.7h0h0.7v-0.1c-0.3-0.1-0.6-0.4-0.7-0.7v-0.2V45.2v-0.6h5.3
		c0.7,0,1.3,0.2,1.7,0.5c0,0,0,0,0,0c0,0,0,0,0,0c0.7,0.5,1.1,1.6,1.1,3c0,0.3,0,0.6,0,0.8v0.8c0,3.1,0.2,5.2,0.7,6.3
		c0.1,0.2,0.2,0.3,0.2,0.5c0.6,1,1.6,1.4,3.2,1.4c0.8,0,1.5-0.2,2-0.6v-0.1C153,57.4,152.8,57.4,152.6,57.4z M144.2,44.1h-5.4v-0.3
		v-6.8h0v-2.8v-0.3v-0.1c0-0.2,0.1-0.4,0.2-0.6c0.1-0.1,0.2-0.1,0.3-0.1h5.5c0.7,0,1.1,0.2,1.2,0.2c0.3,0.2,0.5,0.4,0.7,0.6
		c1,1,1.4,2.6,1.4,4.9c0,2.1-0.6,3.6-1.8,4.5C145.9,43.6,145.2,43.9,144.2,44.1L144.2,44.1z"/>
	<path id="XMLID_22_" class="st1" d="M127.7,32.5L127.7,32.5c0.9,0.3,1.7,1,2,1.9c0.1,0.2,0.1,0.5,0.1,0.8v0.5V47v1.3
		c0,0,0,0.1,0,0.1c0,2.5-1.1,4.8-2.7,6.5c-0.1,0.1-0.1,0.1-0.2,0.2c0,0,0,0,0,0c-0.1,0.1-0.1,0.1-0.2,0.2c-0.1,0.1-0.2,0.2-0.3,0.3
		c-0.3,0.2-0.6,0.5-0.9,0.6c-1.9,1.3-3.7,1.5-4.1,1.5c0,0-0.1,0-0.1,0c-1.2,0-2-0.3-2.4-0.5c-2.3-1.3-3.9-3.8-3.9-6.7v-2v-1.4v-6.6
		v-0.6v-5.3v-0.9l0,0c0,0,0,0,0-0.1c0-0.5,0.3-0.9,0.7-1.1v-0.1h-0.7h-4.7h-0.6v0.1c0.3,0.1,0.5,0.4,0.6,0.7l0,0v1.4v12.4v1.2
		c0,0,0,0.1,0,0.1c0,3.5,1.9,6.5,4.7,8.3c1.5,1,3.3,1.5,5.2,1.5c0,0,0,0,0.1,0c0.4,0,0.8-0.1,1.3-0.1c0,0,0,0,0,0
		c0.9-0.1,1.8-0.3,2.6-0.7c1.8-0.8,3.3-2,4.4-3.6c1-1.6,1.7-3.4,1.7-5.4c0,0,0-0.1,0-0.2V35.6v-0.5c0-0.3,0-0.5,0.1-0.8
		c0.3-0.9,1-1.6,1.9-1.8v-0.1H127.7z"/>
	<path id="XMLID_51_" class="st1" d="M107.9,45.1c0-0.1,0-0.1,0-0.2c0-0.1,0-0.2,0-0.3c0-0.2,0-0.3,0-0.5c0,0,0,0,0-0.1
		c-0.5-5.9-4.7-10.7-10.1-11.3c-0.1,0-0.1,0-0.2,0c-0.1,0-0.1,0-0.2,0l0,0c0,0-0.1,0-0.2,0c-0.2,0-0.4,0-0.6,0c0,0,0,0-0.1,0
		c0,0,0,0,0,0c0,0,0,0,0.1,0c0,0,0,0-0.1,0c0,0,0,0-0.1,0c0,0,0,0,0.1,0c0,0-0.1,0-0.1,0c-0.3,0-0.6,0-0.8,0c0,0,0,0-0.1,0
		c0,0-0.1,0-0.1,0c-0.1,0-0.2,0-0.3,0c-5.4,0.7-9.6,5.4-10.1,11.3c0,0,0,0,0,0.1c0,0.2,0,0.3,0,0.5c0,0.1,0,0.2,0,0.3
		c0,0.1,0,0.1,0,0.2c0,0,0,0,0,0c0,0,0,0,0,0c0,0.1,0,0.1,0,0.2c0,0.1,0,0.2,0,0.3c0,0.2,0,0.3,0,0.5c0,0,0,0,0,0.1
		c0.5,5.9,4.7,10.7,10.1,11.3c0.1,0,0.1,0,0.2,0c0.1,0,0.1,0,0.2,0l0,0c0,0,0.1,0,0.2,0c0.2,0,0.4,0,0.6,0c0,0,0,0,0.1,0
		c0,0,0,0,0,0c0,0,0,0-0.1,0c0,0,0,0,0.1,0c0,0,0,0,0.1,0c0,0,0,0-0.1,0c0,0,0.1,0,0.1,0c0.3,0,0.6,0,0.8,0c0,0,0,0,0.1,0
		c0,0,0.1,0,0.1,0c0.1,0,0.2,0,0.3,0c5.4-0.7,9.6-5.4,10.1-11.3c0,0,0,0,0-0.1c0-0.2,0-0.3,0-0.5c0-0.1,0-0.2,0-0.3
		C107.9,45.3,107.9,45.2,107.9,45.1C107.9,45.1,107.9,45.1,107.9,45.1C107.9,45.1,107.9,45.1,107.9,45.1z M103.1,45.2
		c0,0.2,0,0.5,0,0.7c0,0.1,0,0.2,0,0.2c0,0.2,0,0.4,0,0.6c0,0.1,0,0.2,0,0.4c0,0.1,0,0.2,0,0.3c0,0.2,0,0.4-0.1,0.7
		c0,0.1,0,0.1,0,0.2c-0.5,3.4-1.7,6.3-3.3,7.9c-0.1,0.1-0.3,0.2-0.6,0.4c-0.8,0.3-1.7,0.5-2.5,0.5c-0.9,0-1.8-0.2-2.6-0.6
		c0,0,0,0-0.1,0c0,0,0,0,0,0c-0.2-0.1-0.3-0.2-0.5-0.3c-1.6-1.6-2.9-4.5-3.3-7.9c0-0.1,0-0.1,0-0.2c0-0.2-0.1-0.4-0.1-0.6
		c0-0.1,0-0.2,0-0.3c0-0.1,0-0.2,0-0.4c0-0.2,0-0.4,0-0.6c0-0.1,0-0.2,0-0.2c0-0.2,0-0.5,0-0.7c0,0,0,0,0-0.1c0,0,0,0,0-0.1
		c0-0.2,0-0.5,0-0.7c0-0.1,0-0.2,0-0.2c0-0.2,0-0.4,0-0.6c0-0.1,0-0.2,0-0.4c0-0.1,0-0.2,0-0.3c0-0.2,0-0.4,0.1-0.7
		c0-0.1,0-0.1,0-0.2c0.5-3.4,1.7-6.3,3.3-7.9c0.1-0.1,0.3-0.2,0.6-0.4c0.8-0.3,1.7-0.5,2.5-0.5c0.9,0,1.8,0.2,2.6,0.6c0,0,0,0,0.1,0
		c0,0,0,0,0,0c0.2,0.1,0.3,0.2,0.5,0.3c1.6,1.6,2.9,4.5,3.3,7.9c0,0.1,0,0.1,0,0.2c0,0.2,0.1,0.4,0.1,0.6c0,0.1,0,0.2,0,0.3
		c0,0.1,0,0.2,0,0.4c0,0.2,0,0.4,0,0.6c0,0.1,0,0.2,0,0.2c0,0.2,0,0.5,0,0.7C103.1,45.1,103.1,45.1,103.1,45.2
		C103.1,45.2,103.1,45.2,103.1,45.2z"/>
	<g id="XMLID_48_">
		<path id="XMLID_19_" class="st1" d="M172.8,27.6c-0.1-0.1-0.2-0.1-0.3,0c-0.3,0.6-0.6,1.2-0.9,1.8c0,0,0,0,0,0c0,0,0,0,0,0
			c0,0,0,0.1,0,0.1c0,0,0.1,0.1,0.1,0.1c0,0,0,0,0,0c0,0,0,0,0,0c0.6,0,1.2,0,1.8,0c0.1,0,0.2-0.1,0.1-0.2
			C173.4,28.8,173.1,28.2,172.8,27.6z"/>
		<path id="XMLID_18_" class="st1" d="M176.3,29.4c-0.3-0.6-0.6-1.2-0.9-1.8c0-0.1-0.2-0.1-0.3,0c-0.3,0.6-0.6,1.2-0.9,1.8
			c0,0,0,0,0,0c0,0,0,0,0,0c0,0,0,0.1,0,0.1c0,0,0.1,0.1,0.1,0.1c0,0,0,0,0,0c0,0,0,0,0,0c0.6,0,1.2,0,1.8,0
			C176.3,29.6,176.4,29.5,176.3,29.4z"/>
	</g>
	<path id="XMLID_17_" class="st1" d="M197.4,53.1c-0.5,1.8-1.7,3.4-3.4,4.2c-0.1,0-0.2,0.1-0.3,0.1h-11.6c-0.1-0.1-0.2-0.2-0.2-0.3
		V45.2v-0.6h2.3h3c0.1,0,0.1,0,0.2,0.1c2,0.6,3.6,2.3,4.2,4.3h0.2v-4.4v-0.3v-0.2v-4.4h-0.2c-0.5,2.1-2.1,3.7-4.2,4.4
		c-0.1,0-0.1,0.1-0.2,0.1h-3H182v-0.3v-6.8h0v-3.2l0,0c0,0,0,0,0-0.1c0-0.3,0.1-0.5,0.3-0.7h2h6.8h0.7c1.9,0.8,3.2,2.4,3.7,4.5h0.1
		v-5h-1.1h-3.4h-1.8h-5h-1.1H182h0h-0.8h-1.8h-1.2h-0.8h0h-0.7v0.1c0.3,0.1,0.5,0.4,0.7,0.7V34v19.4h0v3.2l0,0c0,0,0,0,0,0.1
		c0,0.1,0,0.3-0.1,0.4c-0.1,0.3-0.4,0.6-0.7,0.8v0.1h0.8h0h0.8h2.8h1.1h0h0.8h8.5h2.7h0.2h3.3v-4.8H197.4z"/>
</g>
</svg>
