<?xml version="1.0" encoding="utf-8"?>
<!-- Generator: Adobe Illustrator 21.0.2, SVG Export Plug-In . SVG Version: 6.00 Build 0)  -->
<svg version="1.1" id="Logos" xmlns="http://www.w3.org/2000/svg" xmlns:xlink="http://www.w3.org/1999/xlink" x="0px" y="0px"
	 viewBox="0 0 264 101" style="enable-background:new 0 0 264 101;" xml:space="preserve">
<style type="text/css">
	.st0{opacity:0.45;}
	.st1{fill:#FFFFFF;}
	.st2{opacity:0.45;fill:#FFFFFF;}
	.st3{fill:#FBFBFB;}
	.st4{fill:#FCFCFC;}
</style>
<g class="st0">
	<g>
		<path class="st1" d="M77.6,50.4c-6.6-7-7.6-18,3-23.5C71.8,29,65.6,37,68.9,47.2c2.7,8.4,8.4,17.5,6.4,33.8
			c4.9-1.1,7.4-4.2,11-7.4C86.5,62.7,80.9,54.2,77.6,50.4z"/>
		<path class="st1" d="M74.2,36.4c-0.4,2.4-0.9,7.3,4.7,13.5c4.7,5.3,8.4,11.2,8.8,22.6c2.7-2.3,7.7-5,11.3-6.1
			c-0.9-4.6-3.1-10-9.5-15.6c-6.9-6.1-9.9-9.3-9.9-14.3c0.1-7.5,9.2-12.2,15.8-6C88.4,22.3,76,27.4,74.2,36.4z"/>
	</g>
	<g>
		<g>
			<g>
				<path class="st1" d="M104.6,43.1c0,0.1-0.1,0.2-0.2,0.2h-6.7c-0.1,0-0.2-0.1-0.2-0.2v-9.3c0-0.1,0.1-0.2,0.2-0.2h2.4
					c0.1,0,0.2,0.1,0.2,0.2v7c0,0.1,0.1,0.2,0.2,0.2h3.9c0.1,0,0.2,0.1,0.2,0.2V43.1z"/>
			</g>
			<g>
				<path class="st1" d="M109,43.1c0,0.1-0.1,0.2-0.2,0.2h-2.4c-0.1,0-0.2-0.1-0.2-0.2v-9.3c0-0.1,0.1-0.2,0.2-0.2h2.4
					c0.1,0,0.2,0.1,0.2,0.2V43.1z"/>
			</g>
			<g>
				<path class="st1" d="M118.2,39.2c0,0.1-0.1,0.2-0.2,0.2h-3.5c-0.1,0-0.2,0.1-0.2,0.2v3.5c0,0.1-0.1,0.2-0.2,0.2h-2.4
					c-0.1,0-0.2-0.1-0.2-0.2v-9.3c0-0.1,0.1-0.2,0.2-0.2h6.3c0.1,0,0.2,0.1,0.2,0.2v1.6c0,0.1-0.1,0.2-0.2,0.2h-3.5
					c-0.1,0-0.2,0.1-0.2,0.2v1.5c0,0.1,0.1,0.2,0.2,0.2h3.5c0.1,0,0.2,0.1,0.2,0.2V39.2z"/>
			</g>
			<g>
				<path class="st1" d="M127.3,43.1c0,0.1-0.1,0.2-0.2,0.2h-6.6c-0.1,0-0.2-0.1-0.2-0.2v-9.3c0-0.1,0.1-0.2,0.2-0.2h6.5
					c0.1,0,0.2,0.1,0.2,0.2v1.6c0,0.1-0.1,0.2-0.2,0.2h-3.7c-0.1,0-0.2,0.1-0.2,0.2v1.4c0,0.1,0.1,0.2,0.2,0.2h3.5
					c0.1,0,0.2,0.1,0.2,0.2v1.6c0,0.1-0.1,0.2-0.2,0.2h-3.5c-0.1,0-0.2,0.1-0.2,0.2v1.7c0,0.1,0.1,0.2,0.2,0.2h3.8
					c0.1,0,0.2,0.1,0.2,0.2V43.1z"/>
			</g>
			<g>
				<path class="st1" d="M140.2,40.4c0,0.6-0.1,1.1-0.4,1.6c-0.3,0.4-0.7,0.8-1.2,1c-0.5,0.2-1.1,0.4-1.8,0.4c-0.2,0-0.4,0-0.7,0
					c-0.3,0-0.6-0.1-1.1-0.2c-0.5-0.1-0.9-0.3-1.4-0.5v-2.2c0-0.1,0.1-0.1,0.2-0.1c0,0,0.8,0.5,1.2,0.7c0.4,0.2,0.9,0.3,1.4,0.3
					c0.5,0,0.8-0.1,0.9-0.2c0.1-0.2,0.2-0.3,0.2-0.5c0-0.3-0.1-0.5-0.4-0.7c-0.2-0.2-0.6-0.4-1-0.6c-0.5-0.2-1-0.5-1.3-0.7
					c-0.4-0.3-0.7-0.6-0.9-1c-0.2-0.4-0.4-0.9-0.4-1.4c0-0.5,0.1-1,0.4-1.4c0.2-0.4,0.6-0.8,1.1-1c0.5-0.2,1.1-0.4,1.8-0.4
					c0.5,0,1,0.1,1.4,0.2c0.4,0.1,0.8,0.2,1.1,0.4c0.3,0.1,0.5,0.2,0.6,0.3v2.1c0,0.1-0.1,0.1-0.1,0.1c0,0-0.7-0.4-1.1-0.7
					c-0.5-0.2-1-0.3-1.5-0.3c-0.3,0-0.6,0.1-0.8,0.2c-0.2,0.1-0.2,0.3-0.2,0.5c0,0.2,0.1,0.4,0.2,0.5c0.2,0.1,0.4,0.3,0.8,0.5
					c0.7,0.3,1.3,0.7,1.7,0.9c0.4,0.3,0.8,0.6,1,1C140.1,39.4,140.2,39.9,140.2,40.4z"/>
			</g>
			<g>
				<path class="st1" d="M152.1,43.1c0,0.1,0,0.2-0.1,0.2h-2.5c-0.1,0-0.2-0.1-0.2-0.2l-0.6-1.6c0-0.1-0.1-0.2-0.2-0.2h-3.7
					c-0.1,0-0.2,0.1-0.2,0.2l-0.6,1.6c0,0.1-0.1,0.2-0.2,0.2h-2.5c-0.1,0-0.1-0.1-0.1-0.2l3.9-9.3c0-0.1,0.1-0.2,0.2-0.2h2.7
					c0.1,0,0.2,0.1,0.2,0.2L152.1,43.1z M147.8,39.6c0.1,0,0.1-0.1,0.1-0.2l-1.2-3.2c0-0.1-0.1-0.1-0.1,0l-1.2,3.2
					c0,0.1,0,0.2,0.1,0.2H147.8z"/>
			</g>
			<g>
				<path class="st1" d="M161.6,33.6c0.1,0,0.1,0.1,0.1,0.2l-4,9.4c0,0.1-0.2,0.2-0.2,0.2h-1.5c-0.1,0-0.2-0.1-0.2-0.2l-3.9-9.4
					c0-0.1,0-0.2,0.1-0.2h2.5c0.1,0,0.2,0.1,0.2,0.2l2,5.2c0,0.1,0.1,0.1,0.1,0l2-5.2c0-0.1,0.1-0.2,0.2-0.2H161.6z"/>
			</g>
			<g>
				<path class="st1" d="M166,43.1c0,0.1-0.1,0.2-0.2,0.2h-2.4c-0.1,0-0.2-0.1-0.2-0.2v-9.3c0-0.1,0.1-0.2,0.2-0.2h2.4
					c0.1,0,0.2,0.1,0.2,0.2V43.1z"/>
			</g>
			<g>
				<path class="st1" d="M178.5,43.1c0,0.1-0.1,0.2-0.2,0.2h-2.1c-0.1,0-0.2-0.1-0.3-0.1l-4.6-5.1c-0.1-0.1-0.1-0.1-0.1,0v5
					c0,0.1-0.1,0.2-0.2,0.2h-2.4c-0.1,0-0.2-0.1-0.2-0.2v-9.3c0-0.1,0.1-0.2,0.2-0.2h2.1c0.1,0,0.2,0.1,0.3,0.1l4.5,5.1
					c0.1,0.1,0.1,0.1,0.1,0v-5c0-0.1,0.1-0.2,0.2-0.2h2.4c0.1,0,0.2,0.1,0.2,0.2V43.1z"/>
			</g>
			<g>
				<path class="st1" d="M189.8,42.4c0,0.1-0.1,0.2-0.2,0.2c0,0-0.2,0.1-0.3,0.1c-0.1,0.1-0.3,0.1-0.4,0.1c-0.1,0-0.3,0.1-0.6,0.2
					c-0.4,0.1-0.8,0.2-1.3,0.2c-0.4,0.1-0.9,0.1-1.3,0.1c-0.9,0-1.8-0.2-2.6-0.5c-0.8-0.4-1.4-0.9-1.9-1.7c-0.5-0.7-0.7-1.7-0.7-2.8
					c0-0.7,0.1-1.4,0.4-2.1c0.2-0.7,0.6-1.2,1.1-1.6c0.4-0.3,0.8-0.6,1.3-0.8c0.4-0.2,0.8-0.3,1.3-0.4c0.4-0.1,0.9-0.1,1.4-0.1
					c0.8,0,1.5,0.1,2,0.2c0.5,0.1,1.1,0.3,1.7,0.5v2.1c0,0.1-0.1,0.1-0.2,0.1c0,0-0.7-0.4-1.2-0.6c-0.5-0.2-1-0.3-1.7-0.3
					c-0.8,0-1.4,0.2-1.9,0.5c-0.5,0.3-0.8,0.7-1,1.1c-0.2,0.4-0.3,0.9-0.3,1.3c0,0.5,0.1,0.9,0.3,1.3c0.2,0.4,0.5,0.7,1,1
					c0.4,0.2,1,0.4,1.6,0.4c0.4,0,0.7,0,1.1-0.1v-1c0-0.1-0.1-0.2-0.2-0.2h-0.9c-0.1,0-0.2-0.1-0.2-0.2v-1.6c0-0.1,0.1-0.2,0.2-0.2
					h3.3c0.1,0,0.2,0.1,0.2,0.2V42.4z"/>
			</g>
			<g>
				<path class="st1" d="M105.9,56.5c0,0.1-0.1,0.2-0.2,0.3c0,0-0.6,0.3-1,0.4c-0.4,0.1-0.8,0.2-1.2,0.3c-0.4,0.1-0.8,0.1-1.3,0.1
					c-0.8,0-1.5-0.1-2.2-0.3c-0.6-0.2-1.2-0.6-1.7-1c-0.5-0.5-0.8-1-1.1-1.6c-0.2-0.6-0.3-1.3-0.3-2c0-0.8,0.1-1.6,0.4-2.2
					c0.3-0.6,0.7-1.1,1.2-1.6c0.5-0.4,1.1-0.7,1.7-0.9c0.6-0.2,1.3-0.3,2-0.3c1,0,2.2,0.2,3.6,0.7v2.4c0,0.1-0.1,0.1-0.2,0.1
					c0,0-0.8-0.5-1.2-0.6c-0.4-0.2-1-0.3-1.6-0.3c-0.5,0-1,0.1-1.5,0.3c-0.5,0.2-0.8,0.5-1.1,1c-0.3,0.4-0.4,0.9-0.4,1.4
					c0,0.5,0.1,0.9,0.4,1.3c0.2,0.4,0.6,0.7,1,1c0.4,0.2,0.9,0.4,1.5,0.4c0.4,0,0.9-0.1,1.3-0.2c0.4-0.1,0.7-0.2,1-0.4
					c0.3-0.1,0.6-0.3,0.8-0.5V56.5z"/>
			</g>
			<g>
				<path class="st1" d="M117.9,57.3c0,0.1-0.1,0.2-0.2,0.2h-2.4c-0.1,0-0.2-0.1-0.2-0.2v-3.4c0-0.1-0.1-0.2-0.2-0.2h-3.8
					c-0.1,0-0.2,0.1-0.2,0.2v3.4c0,0.1-0.1,0.2-0.2,0.2h-2.4c-0.1,0-0.2-0.1-0.2-0.2V48c0-0.1,0.1-0.2,0.2-0.2h2.4
					c0.1,0,0.2,0.1,0.2,0.2v3.2c0,0.1,0.1,0.2,0.2,0.2h3.8c0.1,0,0.2-0.1,0.2-0.2V48c0-0.1,0.1-0.2,0.2-0.2h2.4
					c0.1,0,0.2,0.1,0.2,0.2V57.3z"/>
			</g>
			<g>
				<path class="st1" d="M130.5,57.3c0,0.1,0,0.2-0.1,0.2h-2.5c-0.1,0-0.2-0.1-0.2-0.2l-0.6-1.6c0-0.1-0.1-0.2-0.2-0.2h-3.7
					c-0.1,0-0.2,0.1-0.2,0.2l-0.6,1.6c0,0.1-0.1,0.2-0.2,0.2h-2.5c-0.1,0-0.1-0.1-0.1-0.2l3.9-9.3c0-0.1,0.1-0.2,0.2-0.2h2.7
					c0.1,0,0.2,0.1,0.2,0.2L130.5,57.3z M126.1,53.8c0.1,0,0.1-0.1,0.1-0.2l-1.2-3.2c0-0.1-0.1-0.1-0.1,0l-1.2,3.2
					c0,0.1,0,0.2,0.1,0.2H126.1z"/>
			</g>
			<g>
				<path class="st1" d="M139.9,50.9c0,0.4-0.1,0.7-0.2,1c-0.1,0.3-0.3,0.7-0.6,1c-0.3,0.3-0.6,0.5-1.1,0.7c-0.4,0.2-1,0.3-1.6,0.3
					h-1.6c-0.1,0-0.2,0.1-0.2,0.2v3.3c0,0.1-0.1,0.2-0.2,0.2h-2.4c-0.1,0-0.2-0.1-0.2-0.2V48c0-0.1,0.1-0.2,0.2-0.2h4.3
					c0.1,0,0.3,0,0.4,0c0,0,1,0.1,1.4,0.3c0.4,0.2,0.8,0.4,1.1,0.7c0.3,0.3,0.5,0.6,0.6,1C139.9,50.1,139.9,50.5,139.9,50.9z
					 M137.1,50.9c0-0.5-0.1-0.8-0.4-0.9c-0.3-0.2-0.7-0.3-1.4-0.3h-0.4c-0.1,0-0.2,0.1-0.2,0.2v2c0,0.1,0.1,0.2,0.2,0.2h0.2
					c0.1,0,0.3,0,0.4,0c0,0,0.6,0,0.9-0.1c0.2-0.1,0.4-0.2,0.5-0.3C137,51.4,137.1,51.2,137.1,50.9z"/>
			</g>
			<g>
				<path class="st1" d="M148.5,57.3c0,0.1-0.1,0.2-0.2,0.2h-6.7c-0.1,0-0.2-0.1-0.2-0.2V48c0-0.1,0.1-0.2,0.2-0.2h2.4
					c0.1,0,0.2,0.1,0.2,0.2v7c0,0.1,0.1,0.2,0.2,0.2h3.9c0.1,0,0.2,0.1,0.2,0.2V57.3z"/>
			</g>
			<g>
				<path class="st1" d="M160.8,57.3c0,0.1,0,0.2-0.1,0.2h-2.5c-0.1,0-0.2-0.1-0.2-0.2l-0.6-1.6c0-0.1-0.1-0.2-0.2-0.2h-3.7
					c-0.1,0-0.2,0.1-0.2,0.2l-0.6,1.6c0,0.1-0.1,0.2-0.2,0.2h-2.5c-0.1,0-0.1-0.1-0.1-0.2l3.9-9.3c0-0.1,0.1-0.2,0.2-0.2h2.7
					c0.1,0,0.2,0.1,0.2,0.2L160.8,57.3z M156.4,53.8c0.1,0,0.1-0.1,0.1-0.2l-1.2-3.2c0-0.1-0.1-0.1-0.1,0l-1.2,3.2
					c0,0.1,0,0.2,0.1,0.2H156.4z"/>
			</g>
			<g>
				<path class="st1" d="M165,57.3c0,0.1-0.1,0.2-0.2,0.2h-2.4c-0.1,0-0.2-0.1-0.2-0.2V48c0-0.1,0.1-0.2,0.2-0.2h2.4
					c0.1,0,0.2,0.1,0.2,0.2V57.3z"/>
			</g>
			<g>
				<path class="st1" d="M177.6,57.3c0,0.1-0.1,0.2-0.2,0.2h-2.1c-0.1,0-0.2-0.1-0.3-0.1l-4.6-5.1c-0.1-0.1-0.1-0.1-0.1,0v5
					c0,0.1-0.1,0.2-0.2,0.2h-2.4c-0.1,0-0.2-0.1-0.2-0.2V48c0-0.1,0.1-0.2,0.2-0.2h2.1c0.1,0,0.2,0.1,0.3,0.1l4.5,5.1
					c0.1,0.1,0.1,0.1,0.1,0v-5c0-0.1,0.1-0.2,0.2-0.2h2.4c0.1,0,0.2,0.1,0.2,0.2V57.3z"/>
			</g>
			<g>
				<path class="st1" d="M188.4,56.5c0,0.1-0.1,0.2-0.2,0.3c0,0-0.6,0.3-1,0.4c-0.4,0.1-0.8,0.2-1.2,0.3c-0.4,0.1-0.8,0.1-1.3,0.1
					c-0.8,0-1.5-0.1-2.2-0.3c-0.6-0.2-1.2-0.6-1.7-1c-0.5-0.5-0.8-1-1.1-1.6c-0.2-0.6-0.3-1.3-0.3-2c0-0.8,0.1-1.6,0.4-2.2
					c0.3-0.6,0.7-1.1,1.2-1.6c0.5-0.4,1.1-0.7,1.7-0.9c0.6-0.2,1.3-0.3,2-0.3c1,0,2.2,0.2,3.6,0.7v2.4c0,0.1-0.1,0.1-0.2,0.1
					c0,0-0.8-0.5-1.2-0.6c-0.4-0.2-1-0.3-1.6-0.3c-0.5,0-1,0.1-1.5,0.3c-0.5,0.2-0.8,0.5-1.1,1c-0.3,0.4-0.4,0.9-0.4,1.4
					c0,0.5,0.1,0.9,0.4,1.3c0.2,0.4,0.6,0.7,1,1c0.4,0.2,0.9,0.4,1.5,0.4c0.4,0,0.9-0.1,1.3-0.2c0.4-0.1,0.7-0.2,1-0.4
					c0.3-0.1,0.6-0.3,0.8-0.5V56.5z"/>
			</g>
			<g>
				<path class="st1" d="M199.4,47.8c0.1,0,0.1,0.1,0.1,0.1l-3.4,4.9c-0.1,0.1-0.1,0.2-0.1,0.3v4c0,0.1-0.1,0.2-0.2,0.2h-2.4
					c-0.1,0-0.2-0.1-0.2-0.2v-4c0-0.1,0-0.2-0.1-0.3l-3.5-5c-0.1-0.1,0-0.1,0.1-0.1h2.5c0.1,0,0.2,0.1,0.3,0.1l1.9,2.7
					c0.1,0.1,0.1,0.1,0.2,0l1.9-2.7c0.1-0.1,0.2-0.1,0.3-0.1H199.4z"/>
			</g>
		</g>
		<g>
			<g>
				<path class="st1" d="M104.8,66.4c0-0.1,0.2-0.2,0.2-0.2h0.2c0.1,0,0.2,0.1,0.2,0.2l2.3,5.2c0,0.1,0,0.2-0.1,0.2h-0.5
					c-0.1,0-0.2-0.1-0.3-0.2l-0.6-1.3c0-0.1-0.2-0.2-0.3-0.2h-2c-0.1,0-0.2,0.1-0.2,0.2l-0.6,1.3c0,0.1-0.1,0.2-0.2,0.2h-0.5
					c-0.1,0-0.1-0.1-0.1-0.2L104.8,66.4z M105.9,69.5c0.1,0,0.1-0.1,0.1-0.2l-0.7-1.7c0-0.1-0.1-0.1-0.1,0l-0.7,1.7
					c0,0.1,0,0.2,0.1,0.2H105.9z"/>
			</g>
			<g>
				<path class="st1" d="M114.6,66.5c0-0.1,0.1-0.2,0.2-0.2h0.4c0.1,0,0.2,0.1,0.2,0.2v2.8c0,0.1,0,0.3,0,0.4c0,0,0,0.6-0.1,0.8
					c-0.1,0.2-0.1,0.4-0.2,0.5c-0.1,0.1-0.2,0.3-0.3,0.4c-0.4,0.4-1,0.6-1.7,0.6c-0.7,0-1.3-0.2-1.7-0.6c-0.1-0.1-0.2-0.2-0.3-0.4
					c-0.1-0.1-0.2-0.3-0.2-0.5c-0.1-0.2-0.1-0.5-0.1-1v-3c0-0.1,0.1-0.2,0.2-0.2h0.4c0.1,0,0.2,0.1,0.2,0.2v2.8c0,0.1,0,0.3,0,0.4
					c0,0,0,0.7,0.2,0.9c0.1,0.2,0.3,0.4,0.5,0.5c0.2,0.1,0.5,0.2,0.9,0.2c0.5,0,0.9-0.1,1.1-0.4c0.2-0.1,0.3-0.3,0.3-0.5
					c0.1-0.2,0.1-0.5,0.1-0.9V66.5z"/>
			</g>
			<g>
				<path class="st1" d="M120.5,69.5l-0.5-0.3c-0.1-0.1-0.2-0.1-0.3-0.2c0,0-0.5-0.4-0.7-0.6c-0.2-0.2-0.2-0.5-0.2-0.8
					c0-0.4,0.2-0.8,0.5-1.1c0.3-0.3,0.7-0.4,1.2-0.4c0.5,0,0.9,0.1,1.3,0.4v0.7c0,0.1-0.1,0.1-0.1,0.1c0,0-0.7-0.5-1.1-0.5
					c-0.3,0-0.5,0.1-0.6,0.2c-0.2,0.1-0.2,0.3-0.2,0.5c0,0.2,0.1,0.3,0.2,0.5c0.1,0.1,0.3,0.3,0.6,0.5l0.5,0.3
					c0.1,0.1,0.2,0.1,0.3,0.2c0,0,0.9,0.8,0.9,1.4c0,0.4-0.1,0.8-0.4,1.1c-0.3,0.3-0.7,0.4-1.2,0.4c-0.5,0-1-0.2-1.5-0.5v-0.8
					c0-0.1,0.1-0.1,0.1-0.1c0,0,0.8,0.7,1.4,0.7c0.2,0,0.5-0.1,0.6-0.2c0.2-0.1,0.2-0.3,0.2-0.5C121.2,70.1,121,69.8,120.5,69.5z"/>
			</g>
			<g>
				<path class="st1" d="M124.8,66.5c0-0.1,0.1-0.2,0.2-0.2h4.3c0.1,0,0.2,0.1,0.2,0.2v0.3c0,0.1-0.1,0.2-0.2,0.2h-1.6
					c-0.1,0-0.2,0.1-0.2,0.2v4.5c0,0.1-0.1,0.2-0.2,0.2h-0.4c-0.1,0-0.2-0.1-0.2-0.2v-4.5c0-0.1-0.1-0.2-0.2-0.2H125
					c-0.1,0-0.2-0.1-0.2-0.2V66.5z"/>
			</g>
			<g>
				<path class="st1" d="M132.8,71.8c-0.1,0-0.2-0.1-0.2-0.2v-5.2c0-0.1,0.1-0.2,0.2-0.2h1c0.1,0,0.3,0,0.4,0c0,0,0.8,0.1,1.2,0.4
					c0.3,0.3,0.5,0.7,0.5,1.1c0,0.3-0.1,0.6-0.2,0.8c-0.2,0.2-0.4,0.4-0.7,0.5c0.2,0.1,0.3,0.3,0.5,0.5c0.2,0.2,0.4,0.6,0.7,1.1
					c0.2,0.3,0.3,0.6,0.5,0.7l0.2,0.3c0.1,0.1,0,0.1-0.1,0.1h-0.6c-0.1,0-0.2-0.1-0.3-0.1l0-0.1c-0.1-0.1-0.1-0.2-0.1-0.2
					c0,0,0,0,0,0l-0.1-0.1c-0.1-0.1-0.1-0.2-0.2-0.3l-0.1-0.1c-0.1-0.1-0.1-0.2-0.2-0.3l-0.1-0.1c-0.1-0.1-0.1-0.2-0.2-0.3
					c0,0-0.2-0.3-0.3-0.4c-0.1-0.1-0.3-0.2-0.4-0.3c-0.1-0.1-0.3-0.1-0.6-0.1h0c-0.1,0-0.2,0.1-0.2,0.2v2.1c0,0.1-0.1,0.2-0.2,0.2
					H132.8z M133.7,67L133.7,67c-0.2,0-0.2,0.1-0.2,0.2v1.4c0,0.1,0.1,0.2,0.2,0.2c0.1,0,0.2,0,0.3,0c0,0,0.5,0,0.6-0.1
					c0.1-0.1,0.3-0.2,0.3-0.3c0.1-0.1,0.1-0.3,0.1-0.5c0-0.2,0-0.3-0.1-0.5c-0.1-0.1-0.2-0.2-0.4-0.3C134.3,67,134.1,67,133.7,67z"
					/>
			</g>
			<g>
				<path class="st1" d="M142,66.4c0-0.1,0.2-0.2,0.2-0.2h0.2c0.1,0,0.2,0.1,0.2,0.2l2.3,5.2c0,0.1,0,0.2-0.1,0.2h-0.5
					c-0.1,0-0.2-0.1-0.3-0.2l-0.6-1.3c0-0.1-0.2-0.2-0.3-0.2h-2c-0.1,0-0.2,0.1-0.2,0.2l-0.6,1.3c0,0.1-0.1,0.2-0.2,0.2h-0.5
					c-0.1,0-0.1-0.1-0.1-0.2L142,66.4z M143.1,69.5c0.1,0,0.1-0.1,0.1-0.2l-0.7-1.7c0-0.1-0.1-0.1-0.1,0l-0.7,1.7
					c0,0.1,0,0.2,0.1,0.2H143.1z"/>
			</g>
			<g>
				<path class="st1" d="M148.2,66.5c0-0.1,0.1-0.2,0.2-0.2h0.4c0.1,0,0.2,0.1,0.2,0.2v4.5c0,0.1,0.1,0.2,0.2,0.2h2.1
					c0.1,0,0.2,0.1,0.2,0.2v0.4c0,0.1-0.1,0.2-0.2,0.2h-2.9c-0.1,0-0.2-0.1-0.2-0.2V66.5z"/>
			</g>
			<g>
				<path class="st1" d="M154.6,66.5c0-0.1,0.1-0.2,0.2-0.2h0.4c0.1,0,0.2,0.1,0.2,0.2v5.2c0,0.1-0.1,0.2-0.2,0.2h-0.4
					c-0.1,0-0.2-0.1-0.2-0.2V66.5z"/>
			</g>
			<g>
				<path class="st1" d="M160.8,66.4c0-0.1,0.2-0.2,0.2-0.2h0.2c0.1,0,0.2,0.1,0.2,0.2l2.3,5.2c0,0.1,0,0.2-0.1,0.2h-0.5
					c-0.1,0-0.2-0.1-0.3-0.2l-0.6-1.3c0-0.1-0.2-0.2-0.3-0.2h-2c-0.1,0-0.2,0.1-0.2,0.2l-0.6,1.3c0,0.1-0.1,0.2-0.2,0.2h-0.5
					c-0.1,0-0.1-0.1-0.1-0.2L160.8,66.4z M161.9,69.5c0.1,0,0.1-0.1,0.1-0.2l-0.7-1.7c0-0.1-0.1-0.1-0.1,0l-0.7,1.7
					c0,0.1,0,0.2,0.1,0.2H161.9z"/>
			</g>
		</g>
	</g>
</g>
</svg>
