<?xml version="1.0" encoding="utf-8"?>
<!-- Generator: Adobe Illustrator 21.0.2, SVG Export Plug-In . SVG Version: 6.00 Build 0)  -->
<svg version="1.1" id="Logos" xmlns="http://www.w3.org/2000/svg" xmlns:xlink="http://www.w3.org/1999/xlink" x="0px" y="0px"
	 viewBox="0 0 264 101" style="enable-background:new 0 0 264 101;" xml:space="preserve">
<style type="text/css">
	.st0{opacity:0.45;}
	.st1{fill:#FFFFFF;}
	.st2{enable-background:new    ;}
</style>
<g class="st0">
	<path class="st1" d="M52.1,39c-6.4,0-11.5,5.1-11.5,11.5S45.8,62,52.1,62c6.4,0,11.5-5.1,11.5-11.5S58.5,39,52.1,39 M52.1,60.5
		c-5.5,0-10-4.5-10-10s4.5-10,10-10s10,4.5,10,10S57.6,60.5,52.1,60.5"/>
	<path class="st1" d="M52.1,40.9c-5.3,0-9.6,4.3-9.6,9.6s4.3,9.6,9.6,9.6s9.6-4.3,9.6-9.6C61.7,45.2,57.4,40.9,52.1,40.9 M58.2,46.4
		c-0.1,0-0.2,0-0.2-0.2c-0.1-0.3-0.2-0.7-0.3-1c0,0,0,0,0-0.1c-0.1,0.2-0.2,0.4-0.2,0.6c-0.3,0.7-0.6,1.4-0.9,2.1c0,0.1,0,0.1,0,0.2
		c0.2,0.7,0.2,1.4,0.1,2.2c-0.1,0.9-0.5,1.7-1,2.4c-0.2,0.4-0.5,0.7-0.8,1c-0.2,0.2-0.3,0.3-0.5,0.5v0.1c0,0.6,0,1.2,0,1.8
		c0,0.1-0.1,0.2-0.2,0.2c-0.1,0-0.2,0-0.2-0.1c0,0,0-0.1,0-0.2c0-0.6,0-1.3,0-1.9c0-0.1,0-0.2,0.1-0.2c0.3-0.3,0.7-0.7,1-1
		c0.7-0.8,1.2-1.8,1.3-3c0-0.4,0-0.8,0-1.2v-0.1c0,0,0,0.1-0.1,0.1c-0.1,0.3-0.3,0.6-0.4,0.9c0,0.1-0.1,0.2-0.2,0.2
		c-0.1,0-0.1-0.1-0.2-0.1c-0.4-0.7-0.7-1.3-1.1-2c0,0,0,0-0.1-0.1c-0.2,0.3-0.4,0.6-0.6,0.9c-0.2,0.4-0.4,0.7-0.6,1.1
		c-0.1,0.2-0.3,0.2-0.4,0c-0.3-0.4-0.6-0.7-0.9-1.1l-0.1-0.1c-0.2,0.2-0.3,0.4-0.5,0.6c-0.2,0.2-0.3,0.4-0.5,0.6
		c-0.1,0.1-0.2,0.1-0.3,0.1c-0.1-0.1-0.1-0.2,0-0.3c0.4-0.5,0.7-0.9,1.1-1.4c0.1-0.2,0.3-0.2,0.4,0c0.3,0.4,0.6,0.7,0.9,1.1
		c0,0,0,0,0.1,0.1c0.1-0.1,0.2-0.3,0.3-0.4c0.3-0.6,0.7-1.1,1-1.7c0.1-0.1,0.3-0.1,0.4,0c0.2,0.3,0.3,0.6,0.5,0.8
		c0.2,0.4,0.4,0.8,0.6,1.2l0,0c0,0,0-0.1,0.1-0.1c0.1-0.3,0.3-0.6,0.4-0.9v-0.1c-0.6-1.4-1.7-2.3-3.2-2.5c-0.8-0.1-1.5,0.1-2.2,0.4
		c-0.6,0.3-1.1,0.6-1.5,1.1c-0.4,0.4-0.7,0.9-0.9,1.5c0,0-0.1,0.4-0.1,0.5s-0.1,0.3-0.1,0.4c0,0.1,0,0.4,0,0.4v0.5
		c0,0,0,0.3-0.2,0.5c-0.3,0.3-0.6,0.6-0.9,1c0,0,0,0.1-0.1,0.1h0.1c0.4,0.1,0.7,0.3,1.1,0.4c0.2,0.1,0.2,0.1,0.2,0.3
		c0,0.6,0,1.1,0,1.7c0,0.3,0.2,0.6,0.6,0.6c0.9,0,0.9,0,1.8,0v1.1c0,0.1,0,0.1,0,0.2c0,0.1-0.1,0.2-0.2,0.2c-0.1,0-0.2-0.1-0.2-0.2
		c0-0.1,0-0.3,0-0.4c0-0.1,0-0.2,0-0.4h-0.1c-0.4,0-0.8,0-1.3,0c-0.6,0-1-0.4-1-1c0-0.5,0-1.1,0-1.6c0-0.1,0-0.1-0.1-0.1
		c-0.3-0.1-0.7-0.3-1-0.4c-0.3-0.1-0.4-0.5-0.2-0.7c0.3-0.3,0.6-0.7,0.9-1v-0.1c0-0.3,0-0.7,0-1c0.1-0.9,0.4-1.7,0.9-2.4
		c0.7-0.9,1.6-1.6,2.8-1.9c1.3-0.3,2.4-0.1,3.5,0.7c0.6,0.4,1.1,1,1.4,1.6c0,0,0,0,0,0.1c0.4-0.8,0.7-1.6,1.1-2.5
		c-0.1,0-0.1,0-0.1,0.1c-0.3,0.2-0.6,0.3-0.9,0.5c-0.1,0-0.2,0-0.2,0C56,45.5,56,45.5,56,45.4l0.1-0.1c0.5-0.3,1-0.6,1.5-0.8
		c0.1-0.1,0.3,0,0.3,0.1c0.1,0.6,0.3,1.2,0.4,1.7C58.4,46.2,58.3,46.3,58.2,46.4"/>
	<g class="st2">
		<path class="st1" d="M72,50.6h-0.6c-0.2,0-0.3-0.1-0.3-0.3v-0.7c0-0.2,0.1-0.3,0.3-0.3H72v-1.7c0-0.2,0.1-0.3,0.3-0.3l0.9,0
			c0.2,0,0.3,0.1,0.3,0.3v1.7H75c0.2,0,0.3,0.1,0.3,0.3v0.7c0,0.2-0.1,0.3-0.3,0.3h-1.6v3c0,0.5,0.2,0.6,0.5,0.6
			c0.3,0,0.8-0.2,0.9-0.3c0.2-0.1,0.3,0,0.4,0.1l0.3,0.7c0.1,0.2,0,0.3-0.1,0.4c-0.2,0.1-1.1,0.5-1.8,0.5c-1.2,0-1.6-0.7-1.6-1.8
			V50.6z"/>
	</g>
	<g class="st2">
		<path class="st1" d="M76.3,45c0-0.2,0.1-0.3,0.3-0.3h0.9c0.2,0,0.3,0.1,0.3,0.3v4.8c0.2-0.1,0.9-0.7,1.8-0.7
			c1.7,0,2.6,1.2,2.6,2.9v3.1c0,0.2-0.1,0.3-0.3,0.3h-0.9c-0.2,0-0.3-0.1-0.3-0.3v-3.1c0-1-0.5-1.6-1.3-1.6c-0.9,0-1.6,0.7-1.7,1
			v3.7c0,0.2-0.1,0.3-0.3,0.3h-0.9c-0.2,0-0.3-0.1-0.3-0.3V45z"/>
	</g>
	<g class="st2">
		<path class="st1" d="M86.1,49.2c1.6,0,2.8,1.2,2.8,2.8c0,0.1,0,0.3,0,0.4c0,0.2-0.1,0.3-0.3,0.3h-4.2c0,0.8,0.8,1.6,1.8,1.6
			c0.6,0,1.1-0.2,1.4-0.4c0.2-0.1,0.3-0.2,0.4,0l0.4,0.6c0.1,0.1,0.2,0.2,0,0.4c-0.4,0.4-1.2,0.8-2.3,0.8c-1.9,0-3.1-1.5-3.1-3.2
			C83.1,50.7,84.3,49.2,86.1,49.2z M87.5,51.8c0-0.7-0.7-1.4-1.4-1.4c-0.8,0-1.5,0.6-1.6,1.4H87.5z"/>
	</g>
	<g class="st2">
		<path class="st1" d="M92.6,49.7c0-0.2,0.1-0.3,0.3-0.3h0.4c0.1,0,0.2,0.1,0.3,0.2l0.2,0.5c0.1-0.1,0.8-0.9,2-0.9
			c0.9,0,1.5,0.4,2,1c0.2-0.2,1.1-1,2.2-1c1.9,0,2.5,1.3,2.5,2.9v3.1c0,0.2-0.1,0.3-0.3,0.3h-0.9c-0.2,0-0.3-0.1-0.3-0.3v-3.2
			c0-1-0.4-1.5-1.3-1.5c-0.9,0-1.5,0.7-1.6,0.8c0,0.1,0,0.4,0,0.7v3.2c0,0.2-0.1,0.3-0.3,0.3h-0.8c-0.2,0-0.3-0.1-0.3-0.3v-3.2
			c0-1-0.4-1.5-1.3-1.5c-0.9,0-1.4,0.7-1.5,0.9v3.8c0,0.2-0.1,0.3-0.3,0.3h-0.9c-0.2,0-0.3-0.1-0.3-0.3V49.7z"/>
	</g>
	<g class="st2">
		<path class="st1" d="M106.5,49.2c1.6,0,2.8,1.2,2.8,2.8c0,0.1,0,0.3,0,0.4c0,0.2-0.1,0.3-0.3,0.3h-4.2c0,0.8,0.8,1.6,1.8,1.6
			c0.6,0,1.1-0.2,1.4-0.4c0.2-0.1,0.3-0.2,0.4,0l0.4,0.6c0.1,0.1,0.2,0.2,0,0.4c-0.4,0.4-1.2,0.8-2.3,0.8c-1.9,0-3.1-1.5-3.1-3.2
			C103.5,50.7,104.7,49.2,106.5,49.2z M107.9,51.8c0-0.7-0.7-1.4-1.4-1.4c-0.8,0-1.5,0.6-1.6,1.4H107.9z"/>
	</g>
	<g class="st2">
		<path class="st1" d="M110.2,49.7c0-0.2,0.1-0.3,0.3-0.3h0.4c0.1,0,0.2,0.1,0.2,0.2l0.2,0.5c0.1-0.1,0.9-0.9,2.2-0.9
			c1.9,0,2.6,1.3,2.6,2.9v3.1c0,0.2-0.1,0.3-0.3,0.3h-0.9c-0.2,0-0.3-0.1-0.3-0.3v-3.2c0-1-0.5-1.5-1.3-1.5c-1,0-1.6,0.7-1.7,0.9
			v3.8c0,0.2-0.1,0.3-0.4,0.3h-0.8c-0.2,0-0.3-0.1-0.3-0.3V49.7z"/>
	</g>
	<g class="st2">
		<path class="st1" d="M117.8,50.6h-0.6c-0.2,0-0.3-0.1-0.3-0.3v-0.7c0-0.2,0.1-0.3,0.3-0.3h0.6v-1.7c0-0.2,0.1-0.3,0.3-0.3l0.9,0
			c0.2,0,0.3,0.1,0.3,0.3v1.7h1.6c0.2,0,0.3,0.1,0.3,0.3v0.7c0,0.2-0.1,0.3-0.3,0.3h-1.6v3c0,0.5,0.2,0.6,0.5,0.6
			c0.3,0,0.8-0.2,0.9-0.3c0.2-0.1,0.3,0,0.4,0.1l0.3,0.7c0.1,0.2,0,0.3-0.1,0.4c-0.2,0.1-1.1,0.5-1.8,0.5c-1.2,0-1.6-0.7-1.6-1.8
			V50.6z"/>
	</g>
	<g class="st2">
		<path class="st1" d="M124.1,51.6c0.6,0,1.2,0.2,1.2,0.2c0-1-0.2-1.4-1-1.4c-0.7,0-1.4,0.2-1.7,0.3c-0.2,0-0.3-0.1-0.3-0.2
			l-0.1-0.6c0-0.2,0.1-0.3,0.2-0.4c0.1,0,1-0.4,2.1-0.4c2,0,2.2,1.2,2.2,2.7v3.3c0,0.2-0.1,0.3-0.3,0.3H126c-0.1,0-0.2-0.1-0.3-0.2
			l-0.2-0.4c-0.3,0.3-0.9,0.8-1.9,0.8c-1.2,0-2-0.8-2-2.1C121.7,52.5,122.6,51.6,124.1,51.6z M123.9,54.6c0.6,0,1.2-0.5,1.4-0.8v-1
			c-0.1-0.1-0.5-0.2-1.1-0.2c-0.7,0-1.2,0.4-1.2,1C123,54.1,123.4,54.6,123.9,54.6z"/>
		<path class="st1" d="M128.6,45c0-0.2,0.1-0.3,0.3-0.3h0.9c0.2,0,0.3,0.1,0.3,0.3v10.2c0,0.2-0.1,0.3-0.3,0.3h-0.9
			c-0.2,0-0.3-0.1-0.3-0.3V45z"/>
		<path class="st1" d="M135.9,50.6h-0.6c-0.2,0-0.3-0.1-0.3-0.3v-0.7c0-0.2,0.1-0.3,0.3-0.3h0.6v-1.7c0-0.2,0.1-0.3,0.3-0.3l0.9,0
			c0.2,0,0.3,0.1,0.3,0.3v1.7h1.6c0.2,0,0.3,0.1,0.3,0.3v0.7c0,0.2-0.1,0.3-0.3,0.3h-1.6v3c0,0.5,0.2,0.6,0.5,0.6
			c0.3,0,0.8-0.2,0.9-0.3c0.2-0.1,0.3,0,0.4,0.1l0.3,0.7c0.1,0.2,0,0.3-0.1,0.4c-0.2,0.1-1.1,0.5-1.8,0.5c-1.2,0-1.6-0.7-1.6-1.8
			V50.6z"/>
	</g>
	<g class="st2">
		<path class="st1" d="M141.1,49.2c1.7,0,3.1,1.5,3.1,3.2c0,1.8-1.4,3.2-3.1,3.2s-3.1-1.5-3.1-3.2C138,50.7,139.3,49.2,141.1,49.2z
			 M141.1,54.3c1,0,1.7-0.9,1.7-1.9c0-1-0.8-1.9-1.7-1.9s-1.7,0.8-1.7,1.9C139.3,53.5,140.1,54.3,141.1,54.3z"/>
		<path class="st1" d="M145.6,49.7c0-0.2,0.1-0.3,0.3-0.3h0.9c0.2,0,0.3,0.1,0.3,0.3v3.2c0,1,0.5,1.5,1.3,1.5c0.9,0,1.5-0.7,1.5-1
			v-3.7c0-0.2,0.1-0.3,0.3-0.3h0.8c0.2,0,0.3,0.1,0.3,0.3v5.6c0,0.2-0.1,0.3-0.3,0.3h-0.4c-0.2,0-0.2-0.1-0.3-0.2l-0.2-0.4
			c-0.1,0.1-0.8,0.8-2,0.8c-1.8,0-2.5-1.3-2.5-2.9V49.7z"/>
	</g>
	<g class="st2">
		<path class="st1" d="M152.5,53.4c0,0-0.5-0.6-0.5-1.5c0-1.4,1.1-2.7,2.6-2.7h2.7c0.2,0,0.3,0.1,0.3,0.3v0.4c0,0.1-0.1,0.2-0.2,0.3
			l-0.8,0.2c0,0,0.7,0.5,0.7,1.6c0,1.3-1,2.5-2.6,2.5c-0.8,0-1.2-0.2-1.3-0.2c-0.1,0-0.6,0.3-0.6,0.8c0,0.4,0.3,0.6,0.7,0.6h2.1
			c1.3,0,2.4,0.7,2.4,2.1c0,1.4-1.2,2.6-3.3,2.6c-2.2,0-3-1.1-3-2.1c0-0.9,0.8-1.4,0.9-1.4v0c-0.3-0.1-1.1-0.5-1.1-1.5
			C151.4,54,152.5,53.4,152.5,53.4z M154.7,59c0.9,0,1.8-0.5,1.8-1.2c0-0.2-0.2-0.9-1.2-0.9c-0.4,0-0.9,0-1.4,0
			c-0.1,0-0.8,0.3-0.8,1C153.1,58.6,153.7,59,154.7,59z M156,51.9c0-0.8-0.5-1.4-1.3-1.4c-0.8,0-1.4,0.6-1.4,1.4
			c0,0.8,0.6,1.4,1.4,1.4C155.5,53.3,156,52.8,156,51.9z"/>
	</g>
	<g class="st2">
		<path class="st1" d="M158.5,45c0-0.2,0.1-0.3,0.3-0.3h0.9c0.2,0,0.3,0.1,0.3,0.3v4.8c0.2-0.1,0.9-0.7,1.8-0.7
			c1.7,0,2.6,1.2,2.6,2.9v3.1c0,0.2-0.1,0.3-0.3,0.3h-0.9c-0.2,0-0.3-0.1-0.3-0.3v-3.1c0-1-0.5-1.6-1.3-1.6c-0.9,0-1.6,0.7-1.7,1
			v3.7c0,0.2-0.1,0.3-0.3,0.3h-0.9c-0.2,0-0.3-0.1-0.3-0.3V45z"/>
		<path class="st1" d="M166.3,49.7c0-0.2,0.1-0.3,0.3-0.3h0.4c0.1,0,0.2,0.1,0.2,0.2l0.2,0.5c0.1-0.1,0.9-0.9,2.2-0.9
			c1.9,0,2.6,1.3,2.6,2.9v3.1c0,0.2-0.1,0.3-0.3,0.3h-0.9c-0.2,0-0.3-0.1-0.3-0.3v-3.2c0-1-0.5-1.5-1.3-1.5c-1,0-1.6,0.7-1.7,0.9
			v3.8c0,0.2-0.1,0.3-0.4,0.3h-0.8c-0.2,0-0.3-0.1-0.3-0.3V49.7z"/>
	</g>
	<g class="st2">
		<path class="st1" d="M175.5,49.2c1.6,0,2.8,1.2,2.8,2.8c0,0.1,0,0.3,0,0.4c0,0.2-0.1,0.3-0.3,0.3h-4.2c0,0.8,0.8,1.6,1.8,1.6
			c0.6,0,1.1-0.2,1.4-0.4c0.2-0.1,0.3-0.2,0.4,0l0.4,0.6c0.1,0.1,0.2,0.2,0,0.4c-0.4,0.4-1.2,0.8-2.3,0.8c-1.9,0-3.1-1.5-3.1-3.2
			C172.5,50.7,173.7,49.2,175.5,49.2z M176.9,51.8c0-0.7-0.7-1.4-1.4-1.4c-0.8,0-1.5,0.6-1.6,1.4H176.9z"/>
		<path class="st1" d="M179.5,54.7l0.3-0.6c0.1-0.1,0.2-0.2,0.4-0.1c0,0,0.7,0.4,1.4,0.4c0.5,0,0.8-0.2,0.8-0.5c0-0.4-0.3-0.6-1.2-1
			c-1-0.4-1.8-1-1.8-2c0-0.8,0.6-1.7,2.1-1.7c0.9,0,1.5,0.3,1.8,0.5c0.1,0.1,0.2,0.3,0.1,0.4l-0.3,0.5c-0.1,0.1-0.3,0.2-0.4,0.1
			c0,0-0.7-0.3-1.3-0.3c-0.5,0-0.7,0.2-0.7,0.5c0,0.4,0.4,0.6,1,0.8c1.1,0.5,2,1,2,2.1c0,1-0.9,1.8-2.3,1.8c-1,0-1.7-0.4-2-0.6
			C179.5,55,179.4,54.8,179.5,54.7z"/>
		<path class="st1" d="M185,54.7l0.3-0.6c0.1-0.1,0.2-0.2,0.4-0.1c0,0,0.7,0.4,1.4,0.4c0.5,0,0.8-0.2,0.8-0.5c0-0.4-0.3-0.6-1.2-1
			c-1-0.4-1.8-1-1.8-2c0-0.8,0.6-1.7,2.1-1.7c0.9,0,1.5,0.3,1.8,0.5c0.1,0.1,0.2,0.3,0.1,0.4l-0.3,0.5c-0.1,0.1-0.3,0.2-0.4,0.1
			c0,0-0.7-0.3-1.3-0.3c-0.5,0-0.7,0.2-0.7,0.5c0,0.4,0.4,0.6,1,0.8c1.1,0.5,2,1,2,2.1c0,1-0.9,1.8-2.3,1.8c-1,0-1.7-0.4-2-0.6
			C185,55,184.9,54.8,185,54.7z"/>
		<path class="st1" d="M197,49.2c0.9,0,1.7,0.4,2.2,1.1c0.1,0.1,0.1,0.3-0.1,0.4l-0.5,0.5c-0.2,0.2-0.3,0-0.4-0.1
			c-0.3-0.3-0.7-0.6-1.2-0.6c-1,0-1.8,0.8-1.8,1.9c0,1.1,0.8,1.9,1.8,1.9c0.8,0,1.1-0.4,1.4-0.7c0.1-0.1,0.3-0.1,0.4,0l0.4,0.3
			c0.2,0.1,0.2,0.3,0.1,0.4c-0.5,0.8-1.3,1.3-2.4,1.3c-1.7,0-3.2-1.4-3.2-3.2C193.8,50.6,195.3,49.2,197,49.2z"/>
	</g>
	<g class="st2">
		<path class="st1" d="M200.6,49.2c1.7,0,3.1,1.5,3.1,3.2c0,1.8-1.4,3.2-3.1,3.2s-3.1-1.5-3.1-3.2C197.5,50.7,198.8,49.2,200.6,49.2
			z M200.6,54.3c1,0,1.7-0.9,1.7-1.9c0-1-0.8-1.9-1.7-1.9s-1.7,0.8-1.7,1.9C198.8,53.5,199.6,54.3,200.6,54.3z"/>
	</g>
	<g class="st2">
		<path class="st1" d="M206.6,51.6c0.6,0,1.2,0.2,1.2,0.2c0-1-0.2-1.4-1-1.4c-0.7,0-1.4,0.2-1.7,0.3c-0.2,0-0.3-0.1-0.3-0.2
			l-0.1-0.6c0-0.2,0.1-0.3,0.2-0.4c0.1,0,1-0.4,2.1-0.4c2,0,2.2,1.2,2.2,2.7v3.3c0,0.2-0.1,0.3-0.3,0.3h-0.4c-0.1,0-0.2-0.1-0.3-0.2
			l-0.2-0.4c-0.3,0.3-0.9,0.8-1.9,0.8c-1.2,0-2-0.8-2-2.1C204.2,52.5,205.1,51.6,206.6,51.6z M206.4,54.6c0.6,0,1.2-0.5,1.4-0.8v-1
			c-0.1-0.1-0.5-0.2-1.1-0.2c-0.7,0-1.2,0.4-1.2,1C205.5,54.1,205.9,54.6,206.4,54.6z"/>
		<path class="st1" d="M213.9,49.2c0.9,0,1.7,0.4,2.2,1.1c0.1,0.1,0.1,0.3-0.1,0.4l-0.5,0.5c-0.2,0.2-0.3,0-0.4-0.1
			c-0.3-0.3-0.7-0.6-1.2-0.6c-1,0-1.8,0.8-1.8,1.9c0,1.1,0.8,1.9,1.8,1.9c0.8,0,1.1-0.4,1.4-0.7c0.1-0.1,0.3-0.1,0.4,0l0.4,0.3
			c0.2,0.1,0.2,0.3,0.1,0.4c-0.5,0.8-1.3,1.3-2.4,1.3c-1.7,0-3.2-1.4-3.2-3.2C210.7,50.6,212.2,49.2,213.9,49.2z"/>
	</g>
	<g class="st2">
		<path class="st1" d="M216.5,45c0-0.2,0.1-0.3,0.3-0.3h0.9c0.2,0,0.3,0.1,0.3,0.3v4.8c0.2-0.1,0.9-0.7,1.8-0.7
			c1.7,0,2.6,1.2,2.6,2.9v3.1c0,0.2-0.1,0.3-0.3,0.3h-0.9c-0.2,0-0.3-0.1-0.3-0.3v-3.1c0-1-0.5-1.6-1.3-1.6c-0.9,0-1.6,0.7-1.7,1
			v3.7c0,0.2-0.1,0.3-0.3,0.3h-0.9c-0.2,0-0.3-0.1-0.3-0.3V45z"/>
	</g>
</g>
</svg>
